<svg width="380" height="230" viewBox="0 0 380 230" fill="none" xmlns="http://www.w3.org/2000/svg">
<path d="M288.745 82.6327V84.7014L290.813 84.6316C336.166 83.1 371.932 122.845 365.643 167.785L365.011 172.298C362.817 187.979 354.869 202.282 342.712 212.427C331.245 221.997 316.783 227.239 301.847 227.239H89.7144L65.9815 225.02C56.856 224.166 47.9678 221.628 39.7675 217.535L34.0149 214.663C24.3935 209.86 16.4477 202.262 11.219 192.865C5.3104 182.247 3.20296 169.929 5.24516 157.95L6.02044 153.403C7.94067 142.139 13.4657 131.803 21.7647 123.95C31.5621 114.678 44.5388 109.511 58.0277 109.511H70.3045H72.3045V107.511V96.7518C72.3045 76.8433 83.4696 58.6167 101.205 49.5725C116.435 41.8062 134.477 41.8692 149.652 49.7419L154.817 52.4212L156.86 53.4812L157.624 51.3099L158.537 48.7173C165.483 28.9841 180.898 13.3963 200.552 6.2307L202.442 5.54158C208.869 3.19866 215.656 2 222.496 2C227.628 2 232.738 2.6748 237.694 4.00705L242.167 5.20937C249.188 7.0965 255.831 10.1768 261.808 14.3157L262.746 14.9653C274.761 23.2863 283.35 35.6836 286.918 49.8567C288.132 54.6761 288.745 59.6269 288.745 64.5966V82.6327Z" stroke="#C9D8DF" stroke-width="4"/>
<path d="M128.184 83.8145L129.219 84.5176C128.613 85.3444 128.301 86.2363 128.281 87.1934V88.5215H126.484V87.3887C126.484 86.7246 126.641 86.0671 126.953 85.416C127.272 84.765 127.682 84.2311 128.184 83.8145ZM131.26 83.8145L132.295 84.5176C131.689 85.3444 131.377 86.2363 131.357 87.1934V88.5215H129.561V87.3887C129.561 86.7246 129.717 86.0671 130.029 85.416C130.348 84.765 130.758 84.2311 131.26 83.8145ZM136.201 99H134.326V84.7812H136.201V99ZM153.672 96.5098L155.703 88.4336H157.51L154.434 99H152.969L150.4 90.9922L147.9 99H146.436L143.369 88.4336H145.166L147.246 96.3438L149.707 88.4336H151.162L153.672 96.5098ZM158.877 93.6191C158.877 92.584 159.079 91.653 159.482 90.8262C159.893 89.9993 160.459 89.3613 161.182 88.9121C161.911 88.4629 162.741 88.2383 163.672 88.2383C165.111 88.2383 166.273 88.7363 167.158 89.7324C168.05 90.7285 168.496 92.0534 168.496 93.707V93.834C168.496 94.8626 168.298 95.7871 167.9 96.6074C167.51 97.4212 166.947 98.056 166.211 98.5117C165.482 98.9674 164.642 99.1953 163.691 99.1953C162.259 99.1953 161.097 98.6973 160.205 97.7012C159.32 96.7051 158.877 95.3867 158.877 93.7461V93.6191ZM160.693 93.834C160.693 95.0059 160.964 95.9466 161.504 96.6562C162.051 97.3659 162.78 97.7207 163.691 97.7207C164.609 97.7207 165.339 97.3626 165.879 96.6465C166.419 95.9238 166.689 94.9147 166.689 93.6191C166.689 92.4603 166.413 91.5228 165.859 90.8066C165.312 90.084 164.583 89.7227 163.672 89.7227C162.78 89.7227 162.061 90.0775 161.514 90.7871C160.967 91.4967 160.693 92.5124 160.693 93.834ZM177.285 97.9551C176.582 98.7819 175.55 99.1953 174.189 99.1953C173.063 99.1953 172.204 98.8698 171.611 98.2188C171.025 97.5612 170.729 96.5911 170.723 95.3086V88.4336H172.529V95.2598C172.529 96.8613 173.18 97.6621 174.482 97.6621C175.863 97.6621 176.781 97.1478 177.236 96.1191V88.4336H179.043V99H177.324L177.285 97.9551ZM183.76 99H181.953V84H183.76V99ZM186.221 93.6289C186.221 92.0078 186.605 90.7057 187.373 89.7227C188.141 88.7331 189.147 88.2383 190.391 88.2383C191.628 88.2383 192.607 88.6615 193.33 89.5078V84H195.137V99H193.477L193.389 97.8672C192.666 98.7526 191.66 99.1953 190.371 99.1953C189.147 99.1953 188.148 98.694 187.373 97.6914C186.605 96.6888 186.221 95.3802 186.221 93.7656V93.6289ZM188.027 93.834C188.027 95.0319 188.275 95.9694 188.77 96.6465C189.264 97.3236 189.948 97.6621 190.82 97.6621C191.966 97.6621 192.803 97.1478 193.33 96.1191V91.2656C192.79 90.2695 191.96 89.7715 190.84 89.7715C189.954 89.7715 189.264 90.1133 188.77 90.7969C188.275 91.4805 188.027 92.4928 188.027 93.834ZM204.873 99H203.066V84H204.873V99ZM209.736 99H207.93V88.4336H209.736V99ZM207.783 85.6309C207.783 85.3379 207.871 85.0905 208.047 84.8887C208.229 84.6868 208.496 84.5859 208.848 84.5859C209.199 84.5859 209.466 84.6868 209.648 84.8887C209.831 85.0905 209.922 85.3379 209.922 85.6309C209.922 85.9238 209.831 86.168 209.648 86.3633C209.466 86.5586 209.199 86.6562 208.848 86.6562C208.496 86.6562 208.229 86.5586 208.047 86.3633C207.871 86.168 207.783 85.9238 207.783 85.6309ZM215.586 94.1074L214.453 95.2891V99H212.646V84H214.453V93.0723L215.42 91.9102L218.711 88.4336H220.908L216.797 92.8477L221.387 99H219.268L215.586 94.1074ZM226.963 99.1953C225.531 99.1953 224.365 98.7266 223.467 97.7891C222.568 96.8451 222.119 95.5853 222.119 94.0098V93.6777C222.119 92.6296 222.318 91.6953 222.715 90.875C223.118 90.0482 223.678 89.4036 224.395 88.9414C225.117 88.4727 225.898 88.2383 226.738 88.2383C228.112 88.2383 229.18 88.6908 229.941 89.5957C230.703 90.5007 231.084 91.7962 231.084 93.4824V94.2344H223.926C223.952 95.276 224.255 96.1191 224.834 96.7637C225.42 97.4017 226.162 97.7207 227.061 97.7207C227.699 97.7207 228.239 97.5905 228.682 97.3301C229.124 97.0697 229.512 96.7246 229.844 96.2949L230.947 97.1543C230.062 98.515 228.734 99.1953 226.963 99.1953ZM226.738 89.7227C226.009 89.7227 225.397 89.9896 224.902 90.5234C224.408 91.0508 224.102 91.793 223.984 92.75H229.277V92.6133C229.225 91.6953 228.978 90.9857 228.535 90.4844C228.092 89.9766 227.493 89.7227 226.738 89.7227ZM240.596 85.875V88.4336H242.568V89.8301H240.596V96.3828C240.596 96.806 240.684 97.125 240.859 97.3398C241.035 97.5482 241.335 97.6523 241.758 97.6523C241.966 97.6523 242.253 97.6133 242.617 97.5352V99C242.142 99.1302 241.68 99.1953 241.23 99.1953C240.423 99.1953 239.814 98.9512 239.404 98.4629C238.994 97.9746 238.789 97.2812 238.789 96.3828V89.8301H236.865V88.4336H238.789V85.875H240.596ZM244.014 93.6191C244.014 92.584 244.215 91.653 244.619 90.8262C245.029 89.9993 245.596 89.3613 246.318 88.9121C247.048 88.4629 247.878 88.2383 248.809 88.2383C250.247 88.2383 251.41 88.7363 252.295 89.7324C253.187 90.7285 253.633 92.0534 253.633 93.707V93.834C253.633 94.8626 253.434 95.7871 253.037 96.6074C252.646 97.4212 252.083 98.056 251.348 98.5117C250.618 98.9674 249.779 99.1953 248.828 99.1953C247.396 99.1953 246.234 98.6973 245.342 97.7012C244.456 96.7051 244.014 95.3867 244.014 93.7461V93.6191ZM245.83 93.834C245.83 95.0059 246.1 95.9466 246.641 96.6562C247.188 97.3659 247.917 97.7207 248.828 97.7207C249.746 97.7207 250.475 97.3626 251.016 96.6465C251.556 95.9238 251.826 94.9147 251.826 93.6191C251.826 92.4603 251.549 91.5228 250.996 90.8066C250.449 90.084 249.72 89.7227 248.809 89.7227C247.917 89.7227 247.197 90.0775 246.65 90.7871C246.104 91.4967 245.83 92.5124 245.83 93.834ZM107.109 112.713C107.91 111.73 108.952 111.238 110.234 111.238C112.467 111.238 113.594 112.498 113.613 115.018V122H111.807V115.008C111.8 114.246 111.624 113.683 111.279 113.318C110.941 112.954 110.41 112.771 109.688 112.771C109.102 112.771 108.587 112.928 108.145 113.24C107.702 113.553 107.357 113.963 107.109 114.471V122H105.303V107H107.109V112.713ZM122.842 122C122.738 121.792 122.653 121.421 122.588 120.887C121.748 121.759 120.745 122.195 119.58 122.195C118.538 122.195 117.682 121.902 117.012 121.316C116.348 120.724 116.016 119.975 116.016 119.07C116.016 117.97 116.432 117.117 117.266 116.512C118.105 115.9 119.284 115.594 120.801 115.594H122.559V114.764C122.559 114.132 122.37 113.631 121.992 113.26C121.615 112.882 121.058 112.693 120.322 112.693C119.678 112.693 119.137 112.856 118.701 113.182C118.265 113.507 118.047 113.901 118.047 114.363H116.23C116.23 113.836 116.416 113.328 116.787 112.84C117.165 112.345 117.673 111.954 118.311 111.668C118.955 111.382 119.661 111.238 120.43 111.238C121.647 111.238 122.601 111.544 123.291 112.156C123.981 112.762 124.339 113.598 124.365 114.666V119.529C124.365 120.499 124.489 121.271 124.736 121.844V122H122.842ZM119.844 120.623C120.41 120.623 120.947 120.477 121.455 120.184C121.963 119.891 122.331 119.51 122.559 119.041V116.873H121.143C118.929 116.873 117.822 117.521 117.822 118.816C117.822 119.383 118.011 119.826 118.389 120.145C118.766 120.464 119.251 120.623 119.844 120.623ZM130.527 119.549L133.145 111.434H134.99L131.201 122H129.824L125.996 111.434H127.842L130.527 119.549ZM140.977 122.195C139.544 122.195 138.379 121.727 137.48 120.789C136.582 119.845 136.133 118.585 136.133 117.01V116.678C136.133 115.63 136.331 114.695 136.729 113.875C137.132 113.048 137.692 112.404 138.408 111.941C139.131 111.473 139.912 111.238 140.752 111.238C142.126 111.238 143.193 111.691 143.955 112.596C144.717 113.501 145.098 114.796 145.098 116.482V117.234H137.939C137.965 118.276 138.268 119.119 138.848 119.764C139.434 120.402 140.176 120.721 141.074 120.721C141.712 120.721 142.253 120.59 142.695 120.33C143.138 120.07 143.525 119.725 143.857 119.295L144.961 120.154C144.076 121.515 142.747 122.195 140.977 122.195ZM140.752 112.723C140.023 112.723 139.411 112.99 138.916 113.523C138.421 114.051 138.115 114.793 137.998 115.75H143.291V115.613C143.239 114.695 142.992 113.986 142.549 113.484C142.106 112.977 141.507 112.723 140.752 112.723ZM154.609 108.875V111.434H156.582V112.83H154.609V119.383C154.609 119.806 154.697 120.125 154.873 120.34C155.049 120.548 155.348 120.652 155.771 120.652C155.98 120.652 156.266 120.613 156.631 120.535V122C156.156 122.13 155.693 122.195 155.244 122.195C154.437 122.195 153.828 121.951 153.418 121.463C153.008 120.975 152.803 120.281 152.803 119.383V112.83H150.879V111.434H152.803V108.875H154.609ZM160.508 112.713C161.309 111.73 162.35 111.238 163.633 111.238C165.866 111.238 166.992 112.498 167.012 115.018V122H165.205V115.008C165.199 114.246 165.023 113.683 164.678 113.318C164.339 112.954 163.809 112.771 163.086 112.771C162.5 112.771 161.986 112.928 161.543 113.24C161.1 113.553 160.755 113.963 160.508 114.471V122H158.701V107H160.508V112.713ZM174.102 122.195C172.669 122.195 171.504 121.727 170.605 120.789C169.707 119.845 169.258 118.585 169.258 117.01V116.678C169.258 115.63 169.456 114.695 169.854 113.875C170.257 113.048 170.817 112.404 171.533 111.941C172.256 111.473 173.037 111.238 173.877 111.238C175.251 111.238 176.318 111.691 177.08 112.596C177.842 113.501 178.223 114.796 178.223 116.482V117.234H171.064C171.09 118.276 171.393 119.119 171.973 119.764C172.559 120.402 173.301 120.721 174.199 120.721C174.837 120.721 175.378 120.59 175.82 120.33C176.263 120.07 176.65 119.725 176.982 119.295L178.086 120.154C177.201 121.515 175.872 122.195 174.102 122.195ZM173.877 112.723C173.148 112.723 172.536 112.99 172.041 113.523C171.546 114.051 171.24 114.793 171.123 115.75H176.416V115.613C176.364 114.695 176.117 113.986 175.674 113.484C175.231 112.977 174.632 112.723 173.877 112.723ZM191.436 119.197C191.436 118.709 191.25 118.331 190.879 118.064C190.514 117.791 189.873 117.557 188.955 117.361C188.044 117.166 187.318 116.932 186.777 116.658C186.243 116.385 185.846 116.059 185.586 115.682C185.332 115.304 185.205 114.855 185.205 114.334C185.205 113.468 185.57 112.736 186.299 112.137C187.035 111.538 187.972 111.238 189.111 111.238C190.309 111.238 191.279 111.548 192.021 112.166C192.77 112.785 193.145 113.576 193.145 114.539H191.328C191.328 114.044 191.117 113.618 190.693 113.26C190.277 112.902 189.749 112.723 189.111 112.723C188.454 112.723 187.939 112.866 187.568 113.152C187.197 113.439 187.012 113.813 187.012 114.275C187.012 114.712 187.184 115.04 187.529 115.262C187.874 115.483 188.496 115.695 189.395 115.896C190.299 116.098 191.032 116.339 191.592 116.619C192.152 116.899 192.565 117.238 192.832 117.635C193.105 118.025 193.242 118.504 193.242 119.07C193.242 120.014 192.865 120.773 192.109 121.346C191.354 121.912 190.374 122.195 189.17 122.195C188.324 122.195 187.575 122.046 186.924 121.746C186.273 121.447 185.762 121.03 185.391 120.496C185.026 119.956 184.844 119.373 184.844 118.748H186.65C186.683 119.354 186.924 119.835 187.373 120.193C187.829 120.545 188.428 120.721 189.17 120.721C189.854 120.721 190.4 120.584 190.811 120.311C191.227 120.031 191.436 119.66 191.436 119.197ZM202.119 122C202.015 121.792 201.93 121.421 201.865 120.887C201.025 121.759 200.023 122.195 198.857 122.195C197.816 122.195 196.96 121.902 196.289 121.316C195.625 120.724 195.293 119.975 195.293 119.07C195.293 117.97 195.71 117.117 196.543 116.512C197.383 115.9 198.561 115.594 200.078 115.594H201.836V114.764C201.836 114.132 201.647 113.631 201.27 113.26C200.892 112.882 200.335 112.693 199.6 112.693C198.955 112.693 198.415 112.856 197.979 113.182C197.542 113.507 197.324 113.901 197.324 114.363H195.508C195.508 113.836 195.693 113.328 196.064 112.84C196.442 112.345 196.95 111.954 197.588 111.668C198.232 111.382 198.939 111.238 199.707 111.238C200.924 111.238 201.878 111.544 202.568 112.156C203.258 112.762 203.617 113.598 203.643 114.666V119.529C203.643 120.499 203.766 121.271 204.014 121.844V122H202.119ZM199.121 120.623C199.688 120.623 200.225 120.477 200.732 120.184C201.24 119.891 201.608 119.51 201.836 119.041V116.873H200.42C198.206 116.873 197.1 117.521 197.1 118.816C197.1 119.383 197.288 119.826 197.666 120.145C198.044 120.464 198.529 120.623 199.121 120.623ZM208.174 111.434L208.223 112.605C208.997 111.694 210.042 111.238 211.357 111.238C212.835 111.238 213.841 111.805 214.375 112.938C214.727 112.43 215.182 112.02 215.742 111.707C216.309 111.395 216.976 111.238 217.744 111.238C220.062 111.238 221.24 112.465 221.279 114.92V122H219.473V115.027C219.473 114.272 219.3 113.709 218.955 113.338C218.61 112.96 218.031 112.771 217.217 112.771C216.546 112.771 215.99 112.973 215.547 113.377C215.104 113.774 214.847 114.311 214.775 114.988V122H212.959V115.076C212.959 113.54 212.207 112.771 210.703 112.771C209.518 112.771 208.708 113.276 208.271 114.285V122H206.465V111.434H208.174ZM228.398 122.195C226.966 122.195 225.801 121.727 224.902 120.789C224.004 119.845 223.555 118.585 223.555 117.01V116.678C223.555 115.63 223.753 114.695 224.15 113.875C224.554 113.048 225.114 112.404 225.83 111.941C226.553 111.473 227.334 111.238 228.174 111.238C229.548 111.238 230.615 111.691 231.377 112.596C232.139 113.501 232.52 114.796 232.52 116.482V117.234H225.361C225.387 118.276 225.69 119.119 226.27 119.764C226.855 120.402 227.598 120.721 228.496 120.721C229.134 120.721 229.674 120.59 230.117 120.33C230.56 120.07 230.947 119.725 231.279 119.295L232.383 120.154C231.497 121.515 230.169 122.195 228.398 122.195ZM228.174 112.723C227.445 112.723 226.833 112.99 226.338 113.523C225.843 114.051 225.537 114.793 225.42 115.75H230.713V115.613C230.661 114.695 230.413 113.986 229.971 113.484C229.528 112.977 228.929 112.723 228.174 112.723ZM242.031 108.875V111.434H244.004V112.83H242.031V119.383C242.031 119.806 242.119 120.125 242.295 120.34C242.471 120.548 242.77 120.652 243.193 120.652C243.402 120.652 243.688 120.613 244.053 120.535V122C243.577 122.13 243.115 122.195 242.666 122.195C241.859 122.195 241.25 121.951 240.84 121.463C240.43 120.975 240.225 120.281 240.225 119.383V112.83H238.301V111.434H240.225V108.875H242.031ZM249.58 119.354L252.041 111.434H253.975L249.727 123.631C249.069 125.389 248.024 126.268 246.592 126.268L246.25 126.238L245.576 126.111V124.646L246.064 124.686C246.676 124.686 247.152 124.562 247.49 124.314C247.835 124.067 248.118 123.615 248.34 122.957L248.74 121.883L244.971 111.434H246.943L249.58 119.354ZM264.521 116.834C264.521 118.442 264.154 119.738 263.418 120.721C262.682 121.704 261.686 122.195 260.43 122.195C259.147 122.195 258.138 121.788 257.402 120.975V126.062H255.596V111.434H257.246L257.334 112.605C258.07 111.694 259.092 111.238 260.4 111.238C261.67 111.238 262.673 111.717 263.408 112.674C264.15 113.631 264.521 114.962 264.521 116.668V116.834ZM262.715 116.629C262.715 115.438 262.461 114.497 261.953 113.807C261.445 113.117 260.749 112.771 259.863 112.771C258.77 112.771 257.949 113.257 257.402 114.227V119.275C257.943 120.239 258.77 120.721 259.883 120.721C260.749 120.721 261.436 120.379 261.943 119.695C262.458 119.005 262.715 117.983 262.715 116.629ZM271.211 122.195C269.779 122.195 268.613 121.727 267.715 120.789C266.816 119.845 266.367 118.585 266.367 117.01V116.678C266.367 115.63 266.566 114.695 266.963 113.875C267.367 113.048 267.926 112.404 268.643 111.941C269.365 111.473 270.146 111.238 270.986 111.238C272.36 111.238 273.428 111.691 274.189 112.596C274.951 113.501 275.332 114.796 275.332 116.482V117.234H268.174C268.2 118.276 268.503 119.119 269.082 119.764C269.668 120.402 270.41 120.721 271.309 120.721C271.947 120.721 272.487 120.59 272.93 120.33C273.372 120.07 273.76 119.725 274.092 119.295L275.195 120.154C274.31 121.515 272.982 122.195 271.211 122.195ZM270.986 112.723C270.257 112.723 269.645 112.99 269.15 113.523C268.656 114.051 268.35 114.793 268.232 115.75H273.525V115.613C273.473 114.695 273.226 113.986 272.783 113.484C272.34 112.977 271.742 112.723 270.986 112.723ZM110.596 139.619C110.596 138.584 110.798 137.653 111.201 136.826C111.611 135.999 112.178 135.361 112.9 134.912C113.63 134.463 114.46 134.238 115.391 134.238C116.829 134.238 117.992 134.736 118.877 135.732C119.769 136.729 120.215 138.053 120.215 139.707V139.834C120.215 140.863 120.016 141.787 119.619 142.607C119.229 143.421 118.665 144.056 117.93 144.512C117.201 144.967 116.361 145.195 115.41 145.195C113.978 145.195 112.816 144.697 111.924 143.701C111.038 142.705 110.596 141.387 110.596 139.746V139.619ZM112.412 139.834C112.412 141.006 112.682 141.947 113.223 142.656C113.77 143.366 114.499 143.721 115.41 143.721C116.328 143.721 117.057 143.363 117.598 142.646C118.138 141.924 118.408 140.915 118.408 139.619C118.408 138.46 118.132 137.523 117.578 136.807C117.031 136.084 116.302 135.723 115.391 135.723C114.499 135.723 113.779 136.077 113.232 136.787C112.686 137.497 112.412 138.512 112.412 139.834ZM123.369 145V135.83H121.699V134.434H123.369V133.35C123.369 132.217 123.672 131.341 124.277 130.723C124.883 130.104 125.739 129.795 126.846 129.795C127.262 129.795 127.676 129.85 128.086 129.961L127.988 131.426C127.682 131.367 127.357 131.338 127.012 131.338C126.426 131.338 125.973 131.51 125.654 131.855C125.335 132.194 125.176 132.682 125.176 133.32V134.434H127.432V135.83H125.176V145H123.369ZM137.881 142.549L140.498 134.434H142.344L138.555 145H137.178L133.35 134.434H135.195L137.881 142.549ZM150.449 145C150.345 144.792 150.26 144.421 150.195 143.887C149.355 144.759 148.353 145.195 147.188 145.195C146.146 145.195 145.29 144.902 144.619 144.316C143.955 143.724 143.623 142.975 143.623 142.07C143.623 140.97 144.04 140.117 144.873 139.512C145.713 138.9 146.891 138.594 148.408 138.594H150.166V137.764C150.166 137.132 149.977 136.631 149.6 136.26C149.222 135.882 148.665 135.693 147.93 135.693C147.285 135.693 146.745 135.856 146.309 136.182C145.872 136.507 145.654 136.901 145.654 137.363H143.838C143.838 136.836 144.023 136.328 144.395 135.84C144.772 135.345 145.28 134.954 145.918 134.668C146.562 134.382 147.269 134.238 148.037 134.238C149.255 134.238 150.208 134.544 150.898 135.156C151.589 135.762 151.947 136.598 151.973 137.666V142.529C151.973 143.499 152.096 144.271 152.344 144.844V145H150.449ZM147.451 143.623C148.018 143.623 148.555 143.477 149.062 143.184C149.57 142.891 149.938 142.51 150.166 142.041V139.873H148.75C146.536 139.873 145.43 140.521 145.43 141.816C145.43 142.383 145.618 142.826 145.996 143.145C146.374 143.464 146.859 143.623 147.451 143.623ZM159.043 143.721C159.688 143.721 160.251 143.525 160.732 143.135C161.214 142.744 161.481 142.256 161.533 141.67H163.242C163.21 142.275 163.001 142.852 162.617 143.398C162.233 143.945 161.719 144.382 161.074 144.707C160.436 145.033 159.759 145.195 159.043 145.195C157.604 145.195 156.458 144.717 155.605 143.76C154.759 142.796 154.336 141.481 154.336 139.814V139.512C154.336 138.483 154.525 137.568 154.902 136.768C155.28 135.967 155.82 135.345 156.523 134.902C157.233 134.46 158.07 134.238 159.033 134.238C160.218 134.238 161.201 134.593 161.982 135.303C162.77 136.012 163.19 136.934 163.242 138.066H161.533C161.481 137.383 161.221 136.823 160.752 136.387C160.29 135.944 159.717 135.723 159.033 135.723C158.115 135.723 157.402 136.055 156.895 136.719C156.393 137.376 156.143 138.33 156.143 139.58V139.922C156.143 141.139 156.393 142.077 156.895 142.734C157.396 143.392 158.112 143.721 159.043 143.721ZM171.797 145C171.693 144.792 171.608 144.421 171.543 143.887C170.703 144.759 169.701 145.195 168.535 145.195C167.493 145.195 166.637 144.902 165.967 144.316C165.303 143.724 164.971 142.975 164.971 142.07C164.971 140.97 165.387 140.117 166.221 139.512C167.061 138.9 168.239 138.594 169.756 138.594H171.514V137.764C171.514 137.132 171.325 136.631 170.947 136.26C170.57 135.882 170.013 135.693 169.277 135.693C168.633 135.693 168.092 135.856 167.656 136.182C167.22 136.507 167.002 136.901 167.002 137.363H165.186C165.186 136.836 165.371 136.328 165.742 135.84C166.12 135.345 166.628 134.954 167.266 134.668C167.91 134.382 168.617 134.238 169.385 134.238C170.602 134.238 171.556 134.544 172.246 135.156C172.936 135.762 173.294 136.598 173.32 137.666V142.529C173.32 143.499 173.444 144.271 173.691 144.844V145H171.797ZM168.799 143.623C169.365 143.623 169.902 143.477 170.41 143.184C170.918 142.891 171.286 142.51 171.514 142.041V139.873H170.098C167.884 139.873 166.777 140.521 166.777 141.816C166.777 142.383 166.966 142.826 167.344 143.145C167.721 143.464 168.206 143.623 168.799 143.623ZM178.604 131.875V134.434H180.576V135.83H178.604V142.383C178.604 142.806 178.691 143.125 178.867 143.34C179.043 143.548 179.342 143.652 179.766 143.652C179.974 143.652 180.26 143.613 180.625 143.535V145C180.15 145.13 179.688 145.195 179.238 145.195C178.431 145.195 177.822 144.951 177.412 144.463C177.002 143.975 176.797 143.281 176.797 142.383V135.83H174.873V134.434H176.797V131.875H178.604ZM184.658 145H182.852V134.434H184.658V145ZM182.705 131.631C182.705 131.338 182.793 131.09 182.969 130.889C183.151 130.687 183.418 130.586 183.77 130.586C184.121 130.586 184.388 130.687 184.57 130.889C184.753 131.09 184.844 131.338 184.844 131.631C184.844 131.924 184.753 132.168 184.57 132.363C184.388 132.559 184.121 132.656 183.77 132.656C183.418 132.656 183.151 132.559 182.969 132.363C182.793 132.168 182.705 131.924 182.705 131.631ZM187.08 139.619C187.08 138.584 187.282 137.653 187.686 136.826C188.096 135.999 188.662 135.361 189.385 134.912C190.114 134.463 190.944 134.238 191.875 134.238C193.314 134.238 194.476 134.736 195.361 135.732C196.253 136.729 196.699 138.053 196.699 139.707V139.834C196.699 140.863 196.501 141.787 196.104 142.607C195.713 143.421 195.15 144.056 194.414 144.512C193.685 144.967 192.845 145.195 191.895 145.195C190.462 145.195 189.3 144.697 188.408 143.701C187.523 142.705 187.08 141.387 187.08 139.746V139.619ZM188.896 139.834C188.896 141.006 189.167 141.947 189.707 142.656C190.254 143.366 190.983 143.721 191.895 143.721C192.812 143.721 193.542 143.363 194.082 142.646C194.622 141.924 194.893 140.915 194.893 139.619C194.893 138.46 194.616 137.523 194.062 136.807C193.516 136.084 192.786 135.723 191.875 135.723C190.983 135.723 190.264 136.077 189.717 136.787C189.17 137.497 188.896 138.512 188.896 139.834ZM200.674 134.434L200.732 135.762C201.54 134.746 202.594 134.238 203.896 134.238C206.13 134.238 207.256 135.498 207.275 138.018V145H205.469V138.008C205.462 137.246 205.286 136.683 204.941 136.318C204.603 135.954 204.072 135.771 203.35 135.771C202.764 135.771 202.249 135.928 201.807 136.24C201.364 136.553 201.019 136.963 200.771 137.471V145H198.965V134.434H200.674ZM216.152 142.197C216.152 141.709 215.967 141.331 215.596 141.064C215.231 140.791 214.59 140.557 213.672 140.361C212.76 140.166 212.035 139.932 211.494 139.658C210.96 139.385 210.563 139.059 210.303 138.682C210.049 138.304 209.922 137.855 209.922 137.334C209.922 136.468 210.286 135.736 211.016 135.137C211.751 134.538 212.689 134.238 213.828 134.238C215.026 134.238 215.996 134.548 216.738 135.166C217.487 135.785 217.861 136.576 217.861 137.539H216.045C216.045 137.044 215.833 136.618 215.41 136.26C214.993 135.902 214.466 135.723 213.828 135.723C213.171 135.723 212.656 135.866 212.285 136.152C211.914 136.439 211.729 136.813 211.729 137.275C211.729 137.712 211.901 138.04 212.246 138.262C212.591 138.483 213.213 138.695 214.111 138.896C215.016 139.098 215.749 139.339 216.309 139.619C216.868 139.899 217.282 140.238 217.549 140.635C217.822 141.025 217.959 141.504 217.959 142.07C217.959 143.014 217.581 143.773 216.826 144.346C216.071 144.912 215.091 145.195 213.887 145.195C213.04 145.195 212.292 145.046 211.641 144.746C210.99 144.447 210.479 144.03 210.107 143.496C209.743 142.956 209.561 142.373 209.561 141.748H211.367C211.4 142.354 211.641 142.835 212.09 143.193C212.546 143.545 213.145 143.721 213.887 143.721C214.57 143.721 215.117 143.584 215.527 143.311C215.944 143.031 216.152 142.66 216.152 142.197ZM234.629 142.51L236.66 134.434H238.467L235.391 145H233.926L231.357 136.992L228.857 145H227.393L224.326 134.434H226.123L228.203 142.344L230.664 134.434H232.119L234.629 142.51ZM242.119 135.713C242.92 134.73 243.962 134.238 245.244 134.238C247.477 134.238 248.604 135.498 248.623 138.018V145H246.816V138.008C246.81 137.246 246.634 136.683 246.289 136.318C245.951 135.954 245.42 135.771 244.697 135.771C244.111 135.771 243.597 135.928 243.154 136.24C242.712 136.553 242.367 136.963 242.119 137.471V145H240.312V130H242.119V135.713ZM253.291 145H251.484V134.434H253.291V145ZM251.338 131.631C251.338 131.338 251.426 131.09 251.602 130.889C251.784 130.687 252.051 130.586 252.402 130.586C252.754 130.586 253.021 130.687 253.203 130.889C253.385 131.09 253.477 131.338 253.477 131.631C253.477 131.924 253.385 132.168 253.203 132.363C253.021 132.559 252.754 132.656 252.402 132.656C252.051 132.656 251.784 132.559 251.602 132.363C251.426 132.168 251.338 131.924 251.338 131.631ZM258.154 145H256.348V130H258.154V145ZM265.439 145.195C264.007 145.195 262.842 144.727 261.943 143.789C261.045 142.845 260.596 141.585 260.596 140.01V139.678C260.596 138.63 260.794 137.695 261.191 136.875C261.595 136.048 262.155 135.404 262.871 134.941C263.594 134.473 264.375 134.238 265.215 134.238C266.589 134.238 267.656 134.691 268.418 135.596C269.18 136.501 269.561 137.796 269.561 139.482V140.234H262.402C262.428 141.276 262.731 142.119 263.311 142.764C263.896 143.402 264.639 143.721 265.537 143.721C266.175 143.721 266.715 143.59 267.158 143.33C267.601 143.07 267.988 142.725 268.32 142.295L269.424 143.154C268.538 144.515 267.21 145.195 265.439 145.195ZM265.215 135.723C264.486 135.723 263.874 135.99 263.379 136.523C262.884 137.051 262.578 137.793 262.461 138.75H267.754V138.613C267.702 137.695 267.454 136.986 267.012 136.484C266.569 135.977 265.97 135.723 265.215 135.723ZM120.576 158.713C121.377 157.73 122.419 157.238 123.701 157.238C125.934 157.238 127.061 158.498 127.08 161.018V168H125.273V161.008C125.267 160.246 125.091 159.683 124.746 159.318C124.408 158.954 123.877 158.771 123.154 158.771C122.568 158.771 122.054 158.928 121.611 159.24C121.169 159.553 120.824 159.963 120.576 160.471V168H118.77V153H120.576V158.713ZM136.309 168C136.204 167.792 136.12 167.421 136.055 166.887C135.215 167.759 134.212 168.195 133.047 168.195C132.005 168.195 131.149 167.902 130.479 167.316C129.814 166.724 129.482 165.975 129.482 165.07C129.482 163.97 129.899 163.117 130.732 162.512C131.572 161.9 132.751 161.594 134.268 161.594H136.025V160.764C136.025 160.132 135.837 159.631 135.459 159.26C135.081 158.882 134.525 158.693 133.789 158.693C133.145 158.693 132.604 158.856 132.168 159.182C131.732 159.507 131.514 159.901 131.514 160.363H129.697C129.697 159.836 129.883 159.328 130.254 158.84C130.632 158.345 131.139 157.954 131.777 157.668C132.422 157.382 133.128 157.238 133.896 157.238C135.114 157.238 136.068 157.544 136.758 158.156C137.448 158.762 137.806 159.598 137.832 160.666V165.529C137.832 166.499 137.956 167.271 138.203 167.844V168H136.309ZM133.311 166.623C133.877 166.623 134.414 166.477 134.922 166.184C135.43 165.891 135.798 165.51 136.025 165.041V162.873H134.609C132.396 162.873 131.289 163.521 131.289 164.816C131.289 165.383 131.478 165.826 131.855 166.145C132.233 166.464 132.718 166.623 133.311 166.623ZM143.994 165.549L146.611 157.434H148.457L144.668 168H143.291L139.463 157.434H141.309L143.994 165.549ZM152.158 168H150.352V157.434H152.158V168ZM150.205 154.631C150.205 154.338 150.293 154.09 150.469 153.889C150.651 153.687 150.918 153.586 151.27 153.586C151.621 153.586 151.888 153.687 152.07 153.889C152.253 154.09 152.344 154.338 152.344 154.631C152.344 154.924 152.253 155.168 152.07 155.363C151.888 155.559 151.621 155.656 151.27 155.656C150.918 155.656 150.651 155.559 150.469 155.363C150.293 155.168 150.205 154.924 150.205 154.631ZM156.768 157.434L156.826 158.762C157.633 157.746 158.688 157.238 159.99 157.238C162.223 157.238 163.35 158.498 163.369 161.018V168H161.562V161.008C161.556 160.246 161.38 159.683 161.035 159.318C160.697 158.954 160.166 158.771 159.443 158.771C158.857 158.771 158.343 158.928 157.9 159.24C157.458 159.553 157.113 159.963 156.865 160.471V168H155.059V157.434H156.768ZM165.664 162.629C165.664 160.982 166.045 159.673 166.807 158.703C167.568 157.727 168.577 157.238 169.834 157.238C171.123 157.238 172.129 157.694 172.852 158.605L172.939 157.434H174.59V167.746C174.59 169.113 174.183 170.191 173.369 170.979C172.562 171.766 171.475 172.16 170.107 172.16C169.346 172.16 168.6 171.997 167.871 171.672C167.142 171.346 166.585 170.9 166.201 170.334L167.139 169.25C167.913 170.207 168.861 170.686 169.98 170.686C170.859 170.686 171.543 170.438 172.031 169.943C172.526 169.449 172.773 168.752 172.773 167.854V166.945C172.051 167.779 171.064 168.195 169.814 168.195C168.577 168.195 167.575 167.697 166.807 166.701C166.045 165.705 165.664 164.348 165.664 162.629ZM167.48 162.834C167.48 164.025 167.725 164.963 168.213 165.646C168.701 166.324 169.385 166.662 170.264 166.662C171.403 166.662 172.24 166.145 172.773 165.109V160.285C172.22 159.276 171.39 158.771 170.283 158.771C169.404 158.771 168.717 159.113 168.223 159.797C167.728 160.48 167.48 161.493 167.48 162.834ZM188.809 168C188.704 167.792 188.62 167.421 188.555 166.887C187.715 167.759 186.712 168.195 185.547 168.195C184.505 168.195 183.649 167.902 182.979 167.316C182.314 166.724 181.982 165.975 181.982 165.07C181.982 163.97 182.399 163.117 183.232 162.512C184.072 161.9 185.251 161.594 186.768 161.594H188.525V160.764C188.525 160.132 188.337 159.631 187.959 159.26C187.581 158.882 187.025 158.693 186.289 158.693C185.645 158.693 185.104 158.856 184.668 159.182C184.232 159.507 184.014 159.901 184.014 160.363H182.197C182.197 159.836 182.383 159.328 182.754 158.84C183.132 158.345 183.639 157.954 184.277 157.668C184.922 157.382 185.628 157.238 186.396 157.238C187.614 157.238 188.568 157.544 189.258 158.156C189.948 158.762 190.306 159.598 190.332 160.666V165.529C190.332 166.499 190.456 167.271 190.703 167.844V168H188.809ZM185.811 166.623C186.377 166.623 186.914 166.477 187.422 166.184C187.93 165.891 188.298 165.51 188.525 165.041V162.873H187.109C184.896 162.873 183.789 163.521 183.789 164.816C183.789 165.383 183.978 165.826 184.355 166.145C184.733 166.464 185.218 166.623 185.811 166.623ZM204.277 165.197C204.277 164.709 204.092 164.331 203.721 164.064C203.356 163.791 202.715 163.557 201.797 163.361C200.885 163.166 200.16 162.932 199.619 162.658C199.085 162.385 198.688 162.059 198.428 161.682C198.174 161.304 198.047 160.855 198.047 160.334C198.047 159.468 198.411 158.736 199.141 158.137C199.876 157.538 200.814 157.238 201.953 157.238C203.151 157.238 204.121 157.548 204.863 158.166C205.612 158.785 205.986 159.576 205.986 160.539H204.17C204.17 160.044 203.958 159.618 203.535 159.26C203.118 158.902 202.591 158.723 201.953 158.723C201.296 158.723 200.781 158.866 200.41 159.152C200.039 159.439 199.854 159.813 199.854 160.275C199.854 160.712 200.026 161.04 200.371 161.262C200.716 161.483 201.338 161.695 202.236 161.896C203.141 162.098 203.874 162.339 204.434 162.619C204.993 162.899 205.407 163.238 205.674 163.635C205.947 164.025 206.084 164.504 206.084 165.07C206.084 166.014 205.706 166.773 204.951 167.346C204.196 167.912 203.216 168.195 202.012 168.195C201.165 168.195 200.417 168.046 199.766 167.746C199.115 167.447 198.604 167.03 198.232 166.496C197.868 165.956 197.686 165.373 197.686 164.748H199.492C199.525 165.354 199.766 165.835 200.215 166.193C200.671 166.545 201.27 166.721 202.012 166.721C202.695 166.721 203.242 166.584 203.652 166.311C204.069 166.031 204.277 165.66 204.277 165.197ZM210.137 157.434L210.186 158.605C210.96 157.694 212.005 157.238 213.32 157.238C214.798 157.238 215.804 157.805 216.338 158.938C216.689 158.43 217.145 158.02 217.705 157.707C218.271 157.395 218.939 157.238 219.707 157.238C222.025 157.238 223.203 158.465 223.242 160.92V168H221.436V161.027C221.436 160.272 221.263 159.709 220.918 159.338C220.573 158.96 219.993 158.771 219.18 158.771C218.509 158.771 217.952 158.973 217.51 159.377C217.067 159.774 216.81 160.311 216.738 160.988V168H214.922V161.076C214.922 159.54 214.17 158.771 212.666 158.771C211.481 158.771 210.671 159.276 210.234 160.285V168H208.428V157.434H210.137ZM232.5 168C232.396 167.792 232.311 167.421 232.246 166.887C231.406 167.759 230.404 168.195 229.238 168.195C228.197 168.195 227.34 167.902 226.67 167.316C226.006 166.724 225.674 165.975 225.674 165.07C225.674 163.97 226.09 163.117 226.924 162.512C227.764 161.9 228.942 161.594 230.459 161.594H232.217V160.764C232.217 160.132 232.028 159.631 231.65 159.26C231.273 158.882 230.716 158.693 229.98 158.693C229.336 158.693 228.796 158.856 228.359 159.182C227.923 159.507 227.705 159.901 227.705 160.363H225.889C225.889 159.836 226.074 159.328 226.445 158.84C226.823 158.345 227.331 157.954 227.969 157.668C228.613 157.382 229.32 157.238 230.088 157.238C231.305 157.238 232.259 157.544 232.949 158.156C233.639 158.762 233.997 159.598 234.023 160.666V165.529C234.023 166.499 234.147 167.271 234.395 167.844V168H232.5ZM229.502 166.623C230.068 166.623 230.605 166.477 231.113 166.184C231.621 165.891 231.989 165.51 232.217 165.041V162.873H230.801C228.587 162.873 227.48 163.521 227.48 164.816C227.48 165.383 227.669 165.826 228.047 166.145C228.424 166.464 228.91 166.623 229.502 166.623ZM238.818 168H237.012V153H238.818V168ZM243.682 168H241.875V153H243.682V168ZM250.967 168.195C249.535 168.195 248.369 167.727 247.471 166.789C246.572 165.845 246.123 164.585 246.123 163.01V162.678C246.123 161.63 246.322 160.695 246.719 159.875C247.122 159.048 247.682 158.404 248.398 157.941C249.121 157.473 249.902 157.238 250.742 157.238C252.116 157.238 253.184 157.691 253.945 158.596C254.707 159.501 255.088 160.796 255.088 162.482V163.234H247.93C247.956 164.276 248.258 165.119 248.838 165.764C249.424 166.402 250.166 166.721 251.064 166.721C251.702 166.721 252.243 166.59 252.686 166.33C253.128 166.07 253.516 165.725 253.848 165.295L254.951 166.154C254.066 167.515 252.738 168.195 250.967 168.195ZM250.742 158.723C250.013 158.723 249.401 158.99 248.906 159.523C248.411 160.051 248.105 160.793 247.988 161.75H253.281V161.613C253.229 160.695 252.982 159.986 252.539 159.484C252.096 158.977 251.497 158.723 250.742 158.723ZM262.295 159.055C262.021 159.009 261.725 158.986 261.406 158.986C260.221 158.986 259.417 159.491 258.994 160.5V168H257.188V157.434H258.945L258.975 158.654C259.567 157.71 260.407 157.238 261.494 157.238C261.846 157.238 262.113 157.284 262.295 157.375V159.055ZM118.467 189.721C119.111 189.721 119.674 189.525 120.156 189.135C120.638 188.744 120.905 188.256 120.957 187.67H122.666C122.633 188.275 122.425 188.852 122.041 189.398C121.657 189.945 121.143 190.382 120.498 190.707C119.86 191.033 119.183 191.195 118.467 191.195C117.028 191.195 115.882 190.717 115.029 189.76C114.183 188.796 113.76 187.481 113.76 185.814V185.512C113.76 184.483 113.949 183.568 114.326 182.768C114.704 181.967 115.244 181.345 115.947 180.902C116.657 180.46 117.493 180.238 118.457 180.238C119.642 180.238 120.625 180.593 121.406 181.303C122.194 182.012 122.614 182.934 122.666 184.066H120.957C120.905 183.383 120.645 182.823 120.176 182.387C119.714 181.944 119.141 181.723 118.457 181.723C117.539 181.723 116.826 182.055 116.318 182.719C115.817 183.376 115.566 184.33 115.566 185.58V185.922C115.566 187.139 115.817 188.077 116.318 188.734C116.82 189.392 117.536 189.721 118.467 189.721ZM131.221 191C131.117 190.792 131.032 190.421 130.967 189.887C130.127 190.759 129.124 191.195 127.959 191.195C126.917 191.195 126.061 190.902 125.391 190.316C124.727 189.724 124.395 188.975 124.395 188.07C124.395 186.97 124.811 186.117 125.645 185.512C126.484 184.9 127.663 184.594 129.18 184.594H130.938V183.764C130.938 183.132 130.749 182.631 130.371 182.26C129.993 181.882 129.437 181.693 128.701 181.693C128.057 181.693 127.516 181.856 127.08 182.182C126.644 182.507 126.426 182.901 126.426 183.363H124.609C124.609 182.836 124.795 182.328 125.166 181.84C125.544 181.345 126.051 180.954 126.689 180.668C127.334 180.382 128.04 180.238 128.809 180.238C130.026 180.238 130.98 180.544 131.67 181.156C132.36 181.762 132.718 182.598 132.744 183.666V188.529C132.744 189.499 132.868 190.271 133.115 190.844V191H131.221ZM128.223 189.623C128.789 189.623 129.326 189.477 129.834 189.184C130.342 188.891 130.71 188.51 130.938 188.041V185.873H129.521C127.308 185.873 126.201 186.521 126.201 187.816C126.201 188.383 126.39 188.826 126.768 189.145C127.145 189.464 127.63 189.623 128.223 189.623ZM140.684 182.055C140.41 182.009 140.114 181.986 139.795 181.986C138.61 181.986 137.806 182.491 137.383 183.5V191H135.576V180.434H137.334L137.363 181.654C137.956 180.71 138.796 180.238 139.883 180.238C140.234 180.238 140.501 180.284 140.684 180.375V182.055ZM151.299 185.834C151.299 187.449 150.928 188.747 150.186 189.73C149.443 190.707 148.447 191.195 147.197 191.195C145.863 191.195 144.831 190.723 144.102 189.779L144.014 191H142.354V176H144.16V181.596C144.889 180.691 145.895 180.238 147.178 180.238C148.46 180.238 149.466 180.723 150.195 181.693C150.931 182.663 151.299 183.992 151.299 185.678V185.834ZM149.492 185.629C149.492 184.398 149.255 183.448 148.779 182.777C148.304 182.107 147.62 181.771 146.729 181.771C145.537 181.771 144.681 182.325 144.16 183.432V188.002C144.714 189.109 145.576 189.662 146.748 189.662C147.614 189.662 148.288 189.327 148.77 188.656C149.251 187.986 149.492 186.977 149.492 185.629ZM153.105 185.619C153.105 184.584 153.307 183.653 153.711 182.826C154.121 181.999 154.688 181.361 155.41 180.912C156.139 180.463 156.969 180.238 157.9 180.238C159.339 180.238 160.501 180.736 161.387 181.732C162.279 182.729 162.725 184.053 162.725 185.707V185.834C162.725 186.863 162.526 187.787 162.129 188.607C161.738 189.421 161.175 190.056 160.439 190.512C159.71 190.967 158.87 191.195 157.92 191.195C156.488 191.195 155.326 190.697 154.434 189.701C153.548 188.705 153.105 187.387 153.105 185.746V185.619ZM154.922 185.834C154.922 187.006 155.192 187.947 155.732 188.656C156.279 189.366 157.008 189.721 157.92 189.721C158.838 189.721 159.567 189.363 160.107 188.646C160.648 187.924 160.918 186.915 160.918 185.619C160.918 184.46 160.641 183.523 160.088 182.807C159.541 182.084 158.812 181.723 157.9 181.723C157.008 181.723 156.289 182.077 155.742 182.787C155.195 183.497 154.922 184.512 154.922 185.834ZM166.699 180.434L166.758 181.762C167.565 180.746 168.62 180.238 169.922 180.238C172.155 180.238 173.281 181.498 173.301 184.018V191H171.494V184.008C171.488 183.246 171.312 182.683 170.967 182.318C170.628 181.954 170.098 181.771 169.375 181.771C168.789 181.771 168.275 181.928 167.832 182.24C167.389 182.553 167.044 182.963 166.797 183.471V191H164.99V180.434H166.699ZM181.875 191V181.83H180.205V180.434H181.875V179.35C181.875 178.217 182.178 177.341 182.783 176.723C183.389 176.104 184.245 175.795 185.352 175.795C185.768 175.795 186.182 175.85 186.592 175.961L186.494 177.426C186.188 177.367 185.863 177.338 185.518 177.338C184.932 177.338 184.479 177.51 184.16 177.855C183.841 178.194 183.682 178.682 183.682 179.32V180.434H185.938V181.83H183.682V191H181.875ZM187.461 185.619C187.461 184.584 187.663 183.653 188.066 182.826C188.477 181.999 189.043 181.361 189.766 180.912C190.495 180.463 191.325 180.238 192.256 180.238C193.695 180.238 194.857 180.736 195.742 181.732C196.634 182.729 197.08 184.053 197.08 185.707V185.834C197.08 186.863 196.882 187.787 196.484 188.607C196.094 189.421 195.531 190.056 194.795 190.512C194.066 190.967 193.226 191.195 192.275 191.195C190.843 191.195 189.681 190.697 188.789 189.701C187.904 188.705 187.461 187.387 187.461 185.746V185.619ZM189.277 185.834C189.277 187.006 189.548 187.947 190.088 188.656C190.635 189.366 191.364 189.721 192.275 189.721C193.193 189.721 193.923 189.363 194.463 188.646C195.003 187.924 195.273 186.915 195.273 185.619C195.273 184.46 194.997 183.523 194.443 182.807C193.896 182.084 193.167 181.723 192.256 181.723C191.364 181.723 190.645 182.077 190.098 182.787C189.551 183.497 189.277 184.512 189.277 185.834ZM198.867 185.619C198.867 184.584 199.069 183.653 199.473 182.826C199.883 181.999 200.449 181.361 201.172 180.912C201.901 180.463 202.731 180.238 203.662 180.238C205.101 180.238 206.263 180.736 207.148 181.732C208.04 182.729 208.486 184.053 208.486 185.707V185.834C208.486 186.863 208.288 187.787 207.891 188.607C207.5 189.421 206.937 190.056 206.201 190.512C205.472 190.967 204.632 191.195 203.682 191.195C202.249 191.195 201.087 190.697 200.195 189.701C199.31 188.705 198.867 187.387 198.867 185.746V185.619ZM200.684 185.834C200.684 187.006 200.954 187.947 201.494 188.656C202.041 189.366 202.77 189.721 203.682 189.721C204.6 189.721 205.329 189.363 205.869 188.646C206.41 187.924 206.68 186.915 206.68 185.619C206.68 184.46 206.403 183.523 205.85 182.807C205.303 182.084 204.574 181.723 203.662 181.723C202.77 181.723 202.051 182.077 201.504 182.787C200.957 183.497 200.684 184.512 200.684 185.834ZM213.203 177.875V180.434H215.176V181.83H213.203V188.383C213.203 188.806 213.291 189.125 213.467 189.34C213.643 189.548 213.942 189.652 214.365 189.652C214.574 189.652 214.86 189.613 215.225 189.535V191C214.749 191.13 214.287 191.195 213.838 191.195C213.031 191.195 212.422 190.951 212.012 190.463C211.602 189.975 211.396 189.281 211.396 188.383V181.83H209.473V180.434H211.396V177.875H213.203ZM226.221 185.834C226.221 187.442 225.853 188.738 225.117 189.721C224.382 190.704 223.385 191.195 222.129 191.195C220.846 191.195 219.837 190.788 219.102 189.975V195.062H217.295V180.434H218.945L219.033 181.605C219.769 180.694 220.791 180.238 222.1 180.238C223.369 180.238 224.372 180.717 225.107 181.674C225.85 182.631 226.221 183.962 226.221 185.668V185.834ZM224.414 185.629C224.414 184.438 224.16 183.497 223.652 182.807C223.145 182.117 222.448 181.771 221.562 181.771C220.469 181.771 219.648 182.257 219.102 183.227V188.275C219.642 189.239 220.469 189.721 221.582 189.721C222.448 189.721 223.135 189.379 223.643 188.695C224.157 188.005 224.414 186.983 224.414 185.629ZM233.633 182.055C233.359 182.009 233.063 181.986 232.744 181.986C231.559 181.986 230.755 182.491 230.332 183.5V191H228.525V180.434H230.283L230.312 181.654C230.905 180.71 231.745 180.238 232.832 180.238C233.184 180.238 233.451 180.284 233.633 180.375V182.055ZM237.266 191H235.459V180.434H237.266V191ZM235.312 177.631C235.312 177.338 235.4 177.09 235.576 176.889C235.758 176.687 236.025 176.586 236.377 176.586C236.729 176.586 236.995 176.687 237.178 176.889C237.36 177.09 237.451 177.338 237.451 177.631C237.451 177.924 237.36 178.168 237.178 178.363C236.995 178.559 236.729 178.656 236.377 178.656C236.025 178.656 235.758 178.559 235.576 178.363C235.4 178.168 235.312 177.924 235.312 177.631ZM241.875 180.434L241.934 181.762C242.741 180.746 243.796 180.238 245.098 180.238C247.331 180.238 248.457 181.498 248.477 184.018V191H246.67V184.008C246.663 183.246 246.488 182.683 246.143 182.318C245.804 181.954 245.273 181.771 244.551 181.771C243.965 181.771 243.451 181.928 243.008 182.24C242.565 182.553 242.22 182.963 241.973 183.471V191H240.166V180.434H241.875ZM253.652 177.875V180.434H255.625V181.83H253.652V188.383C253.652 188.806 253.74 189.125 253.916 189.34C254.092 189.548 254.391 189.652 254.814 189.652C255.023 189.652 255.309 189.613 255.674 189.535V191C255.199 191.13 254.736 191.195 254.287 191.195C253.48 191.195 252.871 190.951 252.461 190.463C252.051 189.975 251.846 189.281 251.846 188.383V181.83H249.922V180.434H251.846V177.875H253.652ZM257.783 190.053C257.783 189.74 257.874 189.48 258.057 189.271C258.245 189.063 258.525 188.959 258.896 188.959C259.268 188.959 259.548 189.063 259.736 189.271C259.932 189.48 260.029 189.74 260.029 190.053C260.029 190.352 259.932 190.603 259.736 190.805C259.548 191.007 259.268 191.107 258.896 191.107C258.525 191.107 258.245 191.007 258.057 190.805C257.874 190.603 257.783 190.352 257.783 190.053ZM261.602 180.785L260.576 180.082C261.182 179.236 261.494 178.344 261.514 177.406V176H263.301V177.27C263.294 177.921 263.132 178.572 262.812 179.223C262.5 179.867 262.096 180.388 261.602 180.785ZM264.6 180.785L263.574 180.082C264.18 179.236 264.492 178.344 264.512 177.406V176H266.299V177.27C266.292 177.921 266.13 178.572 265.811 179.223C265.498 179.867 265.094 180.388 264.6 180.785Z" fill="black"/>
</svg>
