<svg width="380" height="230" viewBox="0 0 380 230" fill="none" xmlns="http://www.w3.org/2000/svg">
<path d="M288.745 82.6327V84.7014L290.813 84.6316C336.166 83.1 371.932 122.845 365.643 167.785L365.011 172.298C362.817 187.979 354.869 202.282 342.712 212.427C331.245 221.997 316.783 227.239 301.847 227.239H89.7144L65.9815 225.02C56.856 224.166 47.9678 221.628 39.7675 217.535L34.0149 214.663C24.3935 209.86 16.4477 202.262 11.219 192.865C5.3104 182.247 3.20296 169.929 5.24516 157.95L6.02044 153.403C7.94067 142.139 13.4657 131.803 21.7647 123.95C31.5621 114.678 44.5388 109.511 58.0277 109.511H70.3045H72.3045V107.511V96.7518C72.3045 76.8433 83.4696 58.6167 101.205 49.5725C116.435 41.8062 134.477 41.8692 149.652 49.7419L154.817 52.4212L156.86 53.4812L157.624 51.3099L158.537 48.7173C165.483 28.9841 180.898 13.3963 200.552 6.2307L202.442 5.54158C208.869 3.19866 215.656 2 222.496 2C227.628 2 232.738 2.6748 237.694 4.00705L242.167 5.20937C249.188 7.0965 255.831 10.1768 261.808 14.3157L262.746 14.9653C274.761 23.2863 283.35 35.6836 286.918 49.8567C288.132 54.6761 288.745 59.6269 288.745 64.5966V82.6327Z" stroke="#C9D8DF" stroke-width="4"/>
<path d="M110.4 86.8145L111.436 87.5176C110.83 88.3444 110.518 89.2363 110.498 90.1934V91.5215H108.701V90.3887C108.701 89.7246 108.857 89.0671 109.17 88.416C109.489 87.765 109.899 87.2311 110.4 86.8145ZM113.477 86.8145L114.512 87.5176C113.906 88.3444 113.594 89.2363 113.574 90.1934V91.5215H111.777V90.3887C111.777 89.7246 111.934 89.0671 112.246 88.416C112.565 87.765 112.975 87.2311 113.477 86.8145ZM118.418 102H116.543V87.7812H118.418V102ZM135.889 99.5098L137.92 91.4336H139.727L136.65 102H135.186L132.617 93.9922L130.117 102H128.652L125.586 91.4336H127.383L129.463 99.3438L131.924 91.4336H133.379L135.889 99.5098ZM141.094 96.6191C141.094 95.584 141.296 94.653 141.699 93.8262C142.109 92.9993 142.676 92.3613 143.398 91.9121C144.128 91.4629 144.958 91.2383 145.889 91.2383C147.327 91.2383 148.49 91.7363 149.375 92.7324C150.267 93.7285 150.713 95.0534 150.713 96.707V96.834C150.713 97.8626 150.514 98.7871 150.117 99.6074C149.727 100.421 149.163 101.056 148.428 101.512C147.699 101.967 146.859 102.195 145.908 102.195C144.476 102.195 143.314 101.697 142.422 100.701C141.536 99.7051 141.094 98.3867 141.094 96.7461V96.6191ZM142.91 96.834C142.91 98.0059 143.18 98.9466 143.721 99.6562C144.268 100.366 144.997 100.721 145.908 100.721C146.826 100.721 147.555 100.363 148.096 99.6465C148.636 98.9238 148.906 97.9147 148.906 96.6191C148.906 95.4603 148.63 94.5228 148.076 93.8066C147.529 93.084 146.8 92.7227 145.889 92.7227C144.997 92.7227 144.277 93.0775 143.73 93.7871C143.184 94.4967 142.91 95.5124 142.91 96.834ZM159.502 100.955C158.799 101.782 157.767 102.195 156.406 102.195C155.28 102.195 154.421 101.87 153.828 101.219C153.242 100.561 152.946 99.5911 152.939 98.3086V91.4336H154.746V98.2598C154.746 99.8613 155.397 100.662 156.699 100.662C158.079 100.662 158.997 100.148 159.453 99.1191V91.4336H161.26V102H159.541L159.502 100.955ZM165.977 102H164.17V87H165.977V102ZM168.438 96.6289C168.438 95.0078 168.822 93.7057 169.59 92.7227C170.358 91.7331 171.364 91.2383 172.607 91.2383C173.844 91.2383 174.824 91.6615 175.547 92.5078V87H177.354V102H175.693L175.605 100.867C174.883 101.753 173.877 102.195 172.588 102.195C171.364 102.195 170.365 101.694 169.59 100.691C168.822 99.6888 168.438 98.3802 168.438 96.7656V96.6289ZM170.244 96.834C170.244 98.0319 170.492 98.9694 170.986 99.6465C171.481 100.324 172.165 100.662 173.037 100.662C174.183 100.662 175.02 100.148 175.547 99.1191V94.2656C175.007 93.2695 174.176 92.7715 173.057 92.7715C172.171 92.7715 171.481 93.1133 170.986 93.7969C170.492 94.4805 170.244 95.4928 170.244 96.834ZM194.072 96.834C194.072 98.4486 193.701 99.7474 192.959 100.73C192.217 101.707 191.221 102.195 189.971 102.195C188.636 102.195 187.604 101.723 186.875 100.779L186.787 102H185.127V87H186.934V92.5957C187.663 91.6908 188.669 91.2383 189.951 91.2383C191.234 91.2383 192.24 91.7233 192.969 92.6934C193.704 93.6634 194.072 94.9915 194.072 96.6777V96.834ZM192.266 96.6289C192.266 95.3984 192.028 94.4479 191.553 93.7773C191.077 93.1068 190.394 92.7715 189.502 92.7715C188.311 92.7715 187.454 93.3249 186.934 94.4316V99.002C187.487 100.109 188.35 100.662 189.521 100.662C190.387 100.662 191.061 100.327 191.543 99.6562C192.025 98.9857 192.266 97.9766 192.266 96.6289ZM200.742 102.195C199.31 102.195 198.145 101.727 197.246 100.789C196.348 99.8451 195.898 98.5853 195.898 97.0098V96.6777C195.898 95.6296 196.097 94.6953 196.494 93.875C196.898 93.0482 197.458 92.4036 198.174 91.9414C198.896 91.4727 199.678 91.2383 200.518 91.2383C201.891 91.2383 202.959 91.6908 203.721 92.5957C204.482 93.5007 204.863 94.7962 204.863 96.4824V97.2344H197.705C197.731 98.276 198.034 99.1191 198.613 99.7637C199.199 100.402 199.941 100.721 200.84 100.721C201.478 100.721 202.018 100.59 202.461 100.33C202.904 100.07 203.291 99.7246 203.623 99.2949L204.727 100.154C203.841 101.515 202.513 102.195 200.742 102.195ZM200.518 92.7227C199.788 92.7227 199.176 92.9896 198.682 93.5234C198.187 94.0508 197.881 94.793 197.764 95.75H203.057V95.6133C203.005 94.6953 202.757 93.9857 202.314 93.4844C201.872 92.9766 201.273 92.7227 200.518 92.7227ZM221.279 99.5098L223.311 91.4336H225.117L222.041 102H220.576L218.008 93.9922L215.508 102H214.043L210.977 91.4336H212.773L214.854 99.3438L217.314 91.4336H218.77L221.279 99.5098ZM228.926 102H227.119V91.4336H228.926V102ZM226.973 88.6309C226.973 88.3379 227.061 88.0905 227.236 87.8887C227.419 87.6868 227.686 87.5859 228.037 87.5859C228.389 87.5859 228.656 87.6868 228.838 87.8887C229.02 88.0905 229.111 88.3379 229.111 88.6309C229.111 88.9238 229.02 89.168 228.838 89.3633C228.656 89.5586 228.389 89.6562 228.037 89.6562C227.686 89.6562 227.419 89.5586 227.236 89.3633C227.061 89.168 226.973 88.9238 226.973 88.6309ZM233.789 102H231.982V87H233.789V102ZM238.652 102H236.846V87H238.652V102ZM243.516 102H241.709V91.4336H243.516V102ZM241.562 88.6309C241.562 88.3379 241.65 88.0905 241.826 87.8887C242.008 87.6868 242.275 87.5859 242.627 87.5859C242.979 87.5859 243.245 87.6868 243.428 87.8887C243.61 88.0905 243.701 88.3379 243.701 88.6309C243.701 88.9238 243.61 89.168 243.428 89.3633C243.245 89.5586 242.979 89.6562 242.627 89.6562C242.275 89.6562 242.008 89.5586 241.826 89.3633C241.65 89.168 241.562 88.9238 241.562 88.6309ZM248.125 91.4336L248.184 92.7617C248.991 91.7461 250.046 91.2383 251.348 91.2383C253.581 91.2383 254.707 92.498 254.727 95.0176V102H252.92V95.0078C252.913 94.2461 252.738 93.6829 252.393 93.3184C252.054 92.9538 251.523 92.7715 250.801 92.7715C250.215 92.7715 249.701 92.9277 249.258 93.2402C248.815 93.5527 248.47 93.9629 248.223 94.4707V102H246.416V91.4336H248.125ZM257.021 96.6289C257.021 94.9818 257.402 93.6732 258.164 92.7031C258.926 91.7266 259.935 91.2383 261.191 91.2383C262.48 91.2383 263.486 91.694 264.209 92.6055L264.297 91.4336H265.947V101.746C265.947 103.113 265.54 104.191 264.727 104.979C263.919 105.766 262.832 106.16 261.465 106.16C260.703 106.16 259.958 105.997 259.229 105.672C258.499 105.346 257.943 104.9 257.559 104.334L258.496 103.25C259.271 104.207 260.218 104.686 261.338 104.686C262.217 104.686 262.9 104.438 263.389 103.943C263.883 103.449 264.131 102.752 264.131 101.854V100.945C263.408 101.779 262.422 102.195 261.172 102.195C259.935 102.195 258.932 101.697 258.164 100.701C257.402 99.7051 257.021 98.3477 257.021 96.6289ZM258.838 96.834C258.838 98.0254 259.082 98.9629 259.57 99.6465C260.059 100.324 260.742 100.662 261.621 100.662C262.76 100.662 263.597 100.145 264.131 99.1094V94.2852C263.577 93.276 262.747 92.7715 261.641 92.7715C260.762 92.7715 260.075 93.1133 259.58 93.7969C259.085 94.4805 258.838 95.4928 258.838 96.834ZM107.334 110.234H105.469V126.562H107.334V128.047H103.652V108.75H107.334V110.234ZM111.357 111.875V114.434H113.33V115.83H111.357V122.383C111.357 122.806 111.445 123.125 111.621 123.34C111.797 123.548 112.096 123.652 112.52 123.652C112.728 123.652 113.014 123.613 113.379 123.535V125C112.904 125.13 112.441 125.195 111.992 125.195C111.185 125.195 110.576 124.951 110.166 124.463C109.756 123.975 109.551 123.281 109.551 122.383V115.83H107.627V114.434H109.551V111.875H111.357ZM114.775 119.619C114.775 118.584 114.977 117.653 115.381 116.826C115.791 115.999 116.357 115.361 117.08 114.912C117.809 114.463 118.639 114.238 119.57 114.238C121.009 114.238 122.171 114.736 123.057 115.732C123.949 116.729 124.395 118.053 124.395 119.707V119.834C124.395 120.863 124.196 121.787 123.799 122.607C123.408 123.421 122.845 124.056 122.109 124.512C121.38 124.967 120.54 125.195 119.59 125.195C118.158 125.195 116.995 124.697 116.104 123.701C115.218 122.705 114.775 121.387 114.775 119.746V119.619ZM116.592 119.834C116.592 121.006 116.862 121.947 117.402 122.656C117.949 123.366 118.678 123.721 119.59 123.721C120.508 123.721 121.237 123.363 121.777 122.646C122.318 121.924 122.588 120.915 122.588 119.619C122.588 118.46 122.311 117.523 121.758 116.807C121.211 116.084 120.482 115.723 119.57 115.723C118.678 115.723 117.959 116.077 117.412 116.787C116.865 117.497 116.592 118.512 116.592 119.834ZM138.145 123.955C137.441 124.782 136.41 125.195 135.049 125.195C133.923 125.195 133.063 124.87 132.471 124.219C131.885 123.561 131.589 122.591 131.582 121.309V114.434H133.389V121.26C133.389 122.861 134.04 123.662 135.342 123.662C136.722 123.662 137.64 123.148 138.096 122.119V114.434H139.902V125H138.184L138.145 123.955ZM148.809 122.197C148.809 121.709 148.623 121.331 148.252 121.064C147.887 120.791 147.246 120.557 146.328 120.361C145.417 120.166 144.691 119.932 144.15 119.658C143.617 119.385 143.219 119.059 142.959 118.682C142.705 118.304 142.578 117.855 142.578 117.334C142.578 116.468 142.943 115.736 143.672 115.137C144.408 114.538 145.345 114.238 146.484 114.238C147.682 114.238 148.652 114.548 149.395 115.166C150.143 115.785 150.518 116.576 150.518 117.539H148.701C148.701 117.044 148.49 116.618 148.066 116.26C147.65 115.902 147.122 115.723 146.484 115.723C145.827 115.723 145.312 115.866 144.941 116.152C144.57 116.439 144.385 116.813 144.385 117.275C144.385 117.712 144.557 118.04 144.902 118.262C145.247 118.483 145.869 118.695 146.768 118.896C147.673 119.098 148.405 119.339 148.965 119.619C149.525 119.899 149.938 120.238 150.205 120.635C150.479 121.025 150.615 121.504 150.615 122.07C150.615 123.014 150.238 123.773 149.482 124.346C148.727 124.912 147.747 125.195 146.543 125.195C145.697 125.195 144.948 125.046 144.297 124.746C143.646 124.447 143.135 124.03 142.764 123.496C142.399 122.956 142.217 122.373 142.217 121.748H144.023C144.056 122.354 144.297 122.835 144.746 123.193C145.202 123.545 145.801 123.721 146.543 123.721C147.227 123.721 147.773 123.584 148.184 123.311C148.6 123.031 148.809 122.66 148.809 122.197ZM157.354 125.195C155.921 125.195 154.756 124.727 153.857 123.789C152.959 122.845 152.51 121.585 152.51 120.01V119.678C152.51 118.63 152.708 117.695 153.105 116.875C153.509 116.048 154.069 115.404 154.785 114.941C155.508 114.473 156.289 114.238 157.129 114.238C158.503 114.238 159.57 114.691 160.332 115.596C161.094 116.501 161.475 117.796 161.475 119.482V120.234H154.316C154.342 121.276 154.645 122.119 155.225 122.764C155.811 123.402 156.553 123.721 157.451 123.721C158.089 123.721 158.63 123.59 159.072 123.33C159.515 123.07 159.902 122.725 160.234 122.295L161.338 123.154C160.452 124.515 159.124 125.195 157.354 125.195ZM157.129 115.723C156.4 115.723 155.788 115.99 155.293 116.523C154.798 117.051 154.492 117.793 154.375 118.75H159.668V118.613C159.616 117.695 159.368 116.986 158.926 116.484C158.483 115.977 157.884 115.723 157.129 115.723ZM175.059 125C174.954 124.792 174.87 124.421 174.805 123.887C173.965 124.759 172.962 125.195 171.797 125.195C170.755 125.195 169.899 124.902 169.229 124.316C168.564 123.724 168.232 122.975 168.232 122.07C168.232 120.97 168.649 120.117 169.482 119.512C170.322 118.9 171.501 118.594 173.018 118.594H174.775V117.764C174.775 117.132 174.587 116.631 174.209 116.26C173.831 115.882 173.275 115.693 172.539 115.693C171.895 115.693 171.354 115.856 170.918 116.182C170.482 116.507 170.264 116.901 170.264 117.363H168.447C168.447 116.836 168.633 116.328 169.004 115.84C169.382 115.345 169.889 114.954 170.527 114.668C171.172 114.382 171.878 114.238 172.646 114.238C173.864 114.238 174.818 114.544 175.508 115.156C176.198 115.762 176.556 116.598 176.582 117.666V122.529C176.582 123.499 176.706 124.271 176.953 124.844V125H175.059ZM172.061 123.623C172.627 123.623 173.164 123.477 173.672 123.184C174.18 122.891 174.548 122.51 174.775 122.041V119.873H173.359C171.146 119.873 170.039 120.521 170.039 121.816C170.039 122.383 170.228 122.826 170.605 123.145C170.983 123.464 171.468 123.623 172.061 123.623ZM181.123 114.434L181.182 115.762C181.989 114.746 183.044 114.238 184.346 114.238C186.579 114.238 187.705 115.498 187.725 118.018V125H185.918V118.008C185.911 117.246 185.736 116.683 185.391 116.318C185.052 115.954 184.521 115.771 183.799 115.771C183.213 115.771 182.699 115.928 182.256 116.24C181.813 116.553 181.468 116.963 181.221 117.471V125H179.414V114.434H181.123ZM201.934 125C201.829 124.792 201.745 124.421 201.68 123.887C200.84 124.759 199.837 125.195 198.672 125.195C197.63 125.195 196.774 124.902 196.104 124.316C195.439 123.724 195.107 122.975 195.107 122.07C195.107 120.97 195.524 120.117 196.357 119.512C197.197 118.9 198.376 118.594 199.893 118.594H201.65V117.764C201.65 117.132 201.462 116.631 201.084 116.26C200.706 115.882 200.15 115.693 199.414 115.693C198.77 115.693 198.229 115.856 197.793 116.182C197.357 116.507 197.139 116.901 197.139 117.363H195.322C195.322 116.836 195.508 116.328 195.879 115.84C196.257 115.345 196.764 114.954 197.402 114.668C198.047 114.382 198.753 114.238 199.521 114.238C200.739 114.238 201.693 114.544 202.383 115.156C203.073 115.762 203.431 116.598 203.457 117.666V122.529C203.457 123.499 203.581 124.271 203.828 124.844V125H201.934ZM198.936 123.623C199.502 123.623 200.039 123.477 200.547 123.184C201.055 122.891 201.423 122.51 201.65 122.041V119.873H200.234C198.021 119.873 196.914 120.521 196.914 121.816C196.914 122.383 197.103 122.826 197.48 123.145C197.858 123.464 198.343 123.623 198.936 123.623ZM208.252 125H206.445V110H208.252V125ZM213.604 111.875V114.434H215.576V115.83H213.604V122.383C213.604 122.806 213.691 123.125 213.867 123.34C214.043 123.548 214.342 123.652 214.766 123.652C214.974 123.652 215.26 123.613 215.625 123.535V125C215.15 125.13 214.688 125.195 214.238 125.195C213.431 125.195 212.822 124.951 212.412 124.463C212.002 123.975 211.797 123.281 211.797 122.383V115.83H209.873V114.434H211.797V111.875H213.604ZM222.08 125.195C220.648 125.195 219.482 124.727 218.584 123.789C217.686 122.845 217.236 121.585 217.236 120.01V119.678C217.236 118.63 217.435 117.695 217.832 116.875C218.236 116.048 218.796 115.404 219.512 114.941C220.234 114.473 221.016 114.238 221.855 114.238C223.229 114.238 224.297 114.691 225.059 115.596C225.82 116.501 226.201 117.796 226.201 119.482V120.234H219.043C219.069 121.276 219.372 122.119 219.951 122.764C220.537 123.402 221.279 123.721 222.178 123.721C222.816 123.721 223.356 123.59 223.799 123.33C224.242 123.07 224.629 122.725 224.961 122.295L226.064 123.154C225.179 124.515 223.851 125.195 222.08 125.195ZM221.855 115.723C221.126 115.723 220.514 115.99 220.02 116.523C219.525 117.051 219.219 117.793 219.102 118.75H224.395V118.613C224.342 117.695 224.095 116.986 223.652 116.484C223.21 115.977 222.611 115.723 221.855 115.723ZM233.408 116.055C233.135 116.009 232.839 115.986 232.52 115.986C231.335 115.986 230.531 116.491 230.107 117.5V125H228.301V114.434H230.059L230.088 115.654C230.68 114.71 231.52 114.238 232.607 114.238C232.959 114.238 233.226 114.284 233.408 114.375V116.055ZM236.787 114.434L236.846 115.762C237.653 114.746 238.708 114.238 240.01 114.238C242.243 114.238 243.369 115.498 243.389 118.018V125H241.582V118.008C241.576 117.246 241.4 116.683 241.055 116.318C240.716 115.954 240.186 115.771 239.463 115.771C238.877 115.771 238.363 115.928 237.92 116.24C237.477 116.553 237.132 116.963 236.885 117.471V125H235.078V114.434H236.787ZM252.637 125C252.533 124.792 252.448 124.421 252.383 123.887C251.543 124.759 250.54 125.195 249.375 125.195C248.333 125.195 247.477 124.902 246.807 124.316C246.143 123.724 245.811 122.975 245.811 122.07C245.811 120.97 246.227 120.117 247.061 119.512C247.9 118.9 249.079 118.594 250.596 118.594H252.354V117.764C252.354 117.132 252.165 116.631 251.787 116.26C251.41 115.882 250.853 115.693 250.117 115.693C249.473 115.693 248.932 115.856 248.496 116.182C248.06 116.507 247.842 116.901 247.842 117.363H246.025C246.025 116.836 246.211 116.328 246.582 115.84C246.96 115.345 247.467 114.954 248.105 114.668C248.75 114.382 249.456 114.238 250.225 114.238C251.442 114.238 252.396 114.544 253.086 115.156C253.776 115.762 254.134 116.598 254.16 117.666V122.529C254.16 123.499 254.284 124.271 254.531 124.844V125H252.637ZM249.639 123.623C250.205 123.623 250.742 123.477 251.25 123.184C251.758 122.891 252.126 122.51 252.354 122.041V119.873H250.938C248.724 119.873 247.617 120.521 247.617 121.816C247.617 122.383 247.806 122.826 248.184 123.145C248.561 123.464 249.046 123.623 249.639 123.623ZM259.443 111.875V114.434H261.416V115.83H259.443V122.383C259.443 122.806 259.531 123.125 259.707 123.34C259.883 123.548 260.182 123.652 260.605 123.652C260.814 123.652 261.1 123.613 261.465 123.535V125C260.99 125.13 260.527 125.195 260.078 125.195C259.271 125.195 258.662 124.951 258.252 124.463C257.842 123.975 257.637 123.281 257.637 122.383V115.83H255.713V114.434H257.637V111.875H259.443ZM267.92 125.195C266.488 125.195 265.322 124.727 264.424 123.789C263.525 122.845 263.076 121.585 263.076 120.01V119.678C263.076 118.63 263.275 117.695 263.672 116.875C264.076 116.048 264.635 115.404 265.352 114.941C266.074 114.473 266.855 114.238 267.695 114.238C269.069 114.238 270.137 114.691 270.898 115.596C271.66 116.501 272.041 117.796 272.041 119.482V120.234H264.883C264.909 121.276 265.212 122.119 265.791 122.764C266.377 123.402 267.119 123.721 268.018 123.721C268.656 123.721 269.196 123.59 269.639 123.33C270.081 123.07 270.469 122.725 270.801 122.295L271.904 123.154C271.019 124.515 269.691 125.195 267.92 125.195ZM267.695 115.723C266.966 115.723 266.354 115.99 265.859 116.523C265.365 117.051 265.059 117.793 264.941 118.75H270.234V118.613C270.182 117.695 269.935 116.986 269.492 116.484C269.049 115.977 268.451 115.723 267.695 115.723ZM115.234 137.434L115.283 138.605C116.058 137.694 117.103 137.238 118.418 137.238C119.896 137.238 120.902 137.805 121.436 138.938C121.787 138.43 122.243 138.02 122.803 137.707C123.369 137.395 124.036 137.238 124.805 137.238C127.122 137.238 128.301 138.465 128.34 140.92V148H126.533V141.027C126.533 140.272 126.361 139.709 126.016 139.338C125.671 138.96 125.091 138.771 124.277 138.771C123.607 138.771 123.05 138.973 122.607 139.377C122.165 139.774 121.908 140.311 121.836 140.988V148H120.02V141.076C120.02 139.54 119.268 138.771 117.764 138.771C116.579 138.771 115.768 139.276 115.332 140.285V148H113.525V137.434H115.234ZM135.459 148.195C134.027 148.195 132.861 147.727 131.963 146.789C131.064 145.845 130.615 144.585 130.615 143.01V142.678C130.615 141.63 130.814 140.695 131.211 139.875C131.615 139.048 132.174 138.404 132.891 137.941C133.613 137.473 134.395 137.238 135.234 137.238C136.608 137.238 137.676 137.691 138.438 138.596C139.199 139.501 139.58 140.796 139.58 142.482V143.234H132.422C132.448 144.276 132.751 145.119 133.33 145.764C133.916 146.402 134.658 146.721 135.557 146.721C136.195 146.721 136.735 146.59 137.178 146.33C137.62 146.07 138.008 145.725 138.34 145.295L139.443 146.154C138.558 147.515 137.23 148.195 135.459 148.195ZM135.234 138.723C134.505 138.723 133.893 138.99 133.398 139.523C132.904 140.051 132.598 140.793 132.48 141.75H137.773V141.613C137.721 140.695 137.474 139.986 137.031 139.484C136.589 138.977 135.99 138.723 135.234 138.723ZM144.131 134.875V137.434H146.104V138.83H144.131V145.383C144.131 145.806 144.219 146.125 144.395 146.34C144.57 146.548 144.87 146.652 145.293 146.652C145.501 146.652 145.788 146.613 146.152 146.535V148C145.677 148.13 145.215 148.195 144.766 148.195C143.958 148.195 143.35 147.951 142.939 147.463C142.529 146.975 142.324 146.281 142.324 145.383V138.83H140.4V137.434H142.324V134.875H144.131ZM150.029 138.713C150.83 137.73 151.872 137.238 153.154 137.238C155.387 137.238 156.514 138.498 156.533 141.018V148H154.727V141.008C154.72 140.246 154.544 139.683 154.199 139.318C153.861 138.954 153.33 138.771 152.607 138.771C152.021 138.771 151.507 138.928 151.064 139.24C150.622 139.553 150.277 139.963 150.029 140.471V148H148.223V133H150.029V138.713ZM158.76 142.619C158.76 141.584 158.962 140.653 159.365 139.826C159.775 138.999 160.342 138.361 161.064 137.912C161.794 137.463 162.624 137.238 163.555 137.238C164.993 137.238 166.156 137.736 167.041 138.732C167.933 139.729 168.379 141.053 168.379 142.707V142.834C168.379 143.863 168.18 144.787 167.783 145.607C167.393 146.421 166.829 147.056 166.094 147.512C165.365 147.967 164.525 148.195 163.574 148.195C162.142 148.195 160.98 147.697 160.088 146.701C159.202 145.705 158.76 144.387 158.76 142.746V142.619ZM160.576 142.834C160.576 144.006 160.846 144.947 161.387 145.656C161.934 146.366 162.663 146.721 163.574 146.721C164.492 146.721 165.221 146.363 165.762 145.646C166.302 144.924 166.572 143.915 166.572 142.619C166.572 141.46 166.296 140.523 165.742 139.807C165.195 139.084 164.466 138.723 163.555 138.723C162.663 138.723 161.943 139.077 161.396 139.787C160.85 140.497 160.576 141.512 160.576 142.834ZM170.205 142.629C170.205 141.008 170.589 139.706 171.357 138.723C172.126 137.733 173.132 137.238 174.375 137.238C175.612 137.238 176.592 137.661 177.314 138.508V133H179.121V148H177.461L177.373 146.867C176.65 147.753 175.645 148.195 174.355 148.195C173.132 148.195 172.132 147.694 171.357 146.691C170.589 145.689 170.205 144.38 170.205 142.766V142.629ZM172.012 142.834C172.012 144.032 172.259 144.969 172.754 145.646C173.249 146.324 173.932 146.662 174.805 146.662C175.951 146.662 176.787 146.148 177.314 145.119V140.266C176.774 139.27 175.944 138.771 174.824 138.771C173.939 138.771 173.249 139.113 172.754 139.797C172.259 140.48 172.012 141.493 172.012 142.834ZM186.416 142.619C186.416 141.584 186.618 140.653 187.021 139.826C187.432 138.999 187.998 138.361 188.721 137.912C189.45 137.463 190.28 137.238 191.211 137.238C192.65 137.238 193.812 137.736 194.697 138.732C195.589 139.729 196.035 141.053 196.035 142.707V142.834C196.035 143.863 195.837 144.787 195.439 145.607C195.049 146.421 194.486 147.056 193.75 147.512C193.021 147.967 192.181 148.195 191.23 148.195C189.798 148.195 188.636 147.697 187.744 146.701C186.859 145.705 186.416 144.387 186.416 142.746V142.619ZM188.232 142.834C188.232 144.006 188.503 144.947 189.043 145.656C189.59 146.366 190.319 146.721 191.23 146.721C192.148 146.721 192.878 146.363 193.418 145.646C193.958 144.924 194.229 143.915 194.229 142.619C194.229 141.46 193.952 140.523 193.398 139.807C192.852 139.084 192.122 138.723 191.211 138.723C190.319 138.723 189.6 139.077 189.053 139.787C188.506 140.497 188.232 141.512 188.232 142.834ZM199.189 148V138.83H197.52V137.434H199.189V136.35C199.189 135.217 199.492 134.341 200.098 133.723C200.703 133.104 201.559 132.795 202.666 132.795C203.083 132.795 203.496 132.85 203.906 132.961L203.809 134.426C203.503 134.367 203.177 134.338 202.832 134.338C202.246 134.338 201.794 134.51 201.475 134.855C201.156 135.194 200.996 135.682 200.996 136.32V137.434H203.252V138.83H200.996V148H199.189ZM212.666 134.875V137.434H214.639V138.83H212.666V145.383C212.666 145.806 212.754 146.125 212.93 146.34C213.105 146.548 213.405 146.652 213.828 146.652C214.036 146.652 214.323 146.613 214.688 146.535V148C214.212 148.13 213.75 148.195 213.301 148.195C212.493 148.195 211.885 147.951 211.475 147.463C211.064 146.975 210.859 146.281 210.859 145.383V138.83H208.936V137.434H210.859V134.875H212.666ZM221.865 139.055C221.592 139.009 221.296 138.986 220.977 138.986C219.792 138.986 218.988 139.491 218.564 140.5V148H216.758V137.434H218.516L218.545 138.654C219.137 137.71 219.977 137.238 221.064 137.238C221.416 137.238 221.683 137.284 221.865 137.375V139.055ZM229.668 148C229.564 147.792 229.479 147.421 229.414 146.887C228.574 147.759 227.572 148.195 226.406 148.195C225.365 148.195 224.508 147.902 223.838 147.316C223.174 146.724 222.842 145.975 222.842 145.07C222.842 143.97 223.258 143.117 224.092 142.512C224.932 141.9 226.11 141.594 227.627 141.594H229.385V140.764C229.385 140.132 229.196 139.631 228.818 139.26C228.441 138.882 227.884 138.693 227.148 138.693C226.504 138.693 225.964 138.856 225.527 139.182C225.091 139.507 224.873 139.901 224.873 140.363H223.057C223.057 139.836 223.242 139.328 223.613 138.84C223.991 138.345 224.499 137.954 225.137 137.668C225.781 137.382 226.488 137.238 227.256 137.238C228.473 137.238 229.427 137.544 230.117 138.156C230.807 138.762 231.165 139.598 231.191 140.666V145.529C231.191 146.499 231.315 147.271 231.562 147.844V148H229.668ZM226.67 146.623C227.236 146.623 227.773 146.477 228.281 146.184C228.789 145.891 229.157 145.51 229.385 145.041V142.873H227.969C225.755 142.873 224.648 143.521 224.648 144.816C224.648 145.383 224.837 145.826 225.215 146.145C225.592 146.464 226.077 146.623 226.67 146.623ZM237.354 145.549L239.971 137.434H241.816L238.027 148H236.65L232.822 137.434H234.668L237.354 145.549ZM247.803 148.195C246.37 148.195 245.205 147.727 244.307 146.789C243.408 145.845 242.959 144.585 242.959 143.01V142.678C242.959 141.63 243.158 140.695 243.555 139.875C243.958 139.048 244.518 138.404 245.234 137.941C245.957 137.473 246.738 137.238 247.578 137.238C248.952 137.238 250.02 137.691 250.781 138.596C251.543 139.501 251.924 140.796 251.924 142.482V143.234H244.766C244.792 144.276 245.094 145.119 245.674 145.764C246.26 146.402 247.002 146.721 247.9 146.721C248.538 146.721 249.079 146.59 249.521 146.33C249.964 146.07 250.352 145.725 250.684 145.295L251.787 146.154C250.902 147.515 249.574 148.195 247.803 148.195ZM247.578 138.723C246.849 138.723 246.237 138.99 245.742 139.523C245.247 140.051 244.941 140.793 244.824 141.75H250.117V141.613C250.065 140.695 249.818 139.986 249.375 139.484C248.932 138.977 248.333 138.723 247.578 138.723ZM255.986 148H254.18V133H255.986V148ZM257.607 131.75H261.299V151.047H257.607V149.562H259.492V133.234H257.607V131.75ZM126.973 171C126.868 170.792 126.784 170.421 126.719 169.887C125.879 170.759 124.876 171.195 123.711 171.195C122.669 171.195 121.813 170.902 121.143 170.316C120.479 169.724 120.146 168.975 120.146 168.07C120.146 166.97 120.563 166.117 121.396 165.512C122.236 164.9 123.415 164.594 124.932 164.594H126.689V163.764C126.689 163.132 126.501 162.631 126.123 162.26C125.745 161.882 125.189 161.693 124.453 161.693C123.809 161.693 123.268 161.856 122.832 162.182C122.396 162.507 122.178 162.901 122.178 163.363H120.361C120.361 162.836 120.547 162.328 120.918 161.84C121.296 161.345 121.803 160.954 122.441 160.668C123.086 160.382 123.792 160.238 124.561 160.238C125.778 160.238 126.732 160.544 127.422 161.156C128.112 161.762 128.47 162.598 128.496 163.666V168.529C128.496 169.499 128.62 170.271 128.867 170.844V171H126.973ZM123.975 169.623C124.541 169.623 125.078 169.477 125.586 169.184C126.094 168.891 126.462 168.51 126.689 168.041V165.873H125.273C123.06 165.873 121.953 166.521 121.953 167.816C121.953 168.383 122.142 168.826 122.52 169.145C122.897 169.464 123.382 169.623 123.975 169.623ZM133.037 160.434L133.096 161.762C133.903 160.746 134.958 160.238 136.26 160.238C138.493 160.238 139.619 161.498 139.639 164.018V171H137.832V164.008C137.826 163.246 137.65 162.683 137.305 162.318C136.966 161.954 136.436 161.771 135.713 161.771C135.127 161.771 134.613 161.928 134.17 162.24C133.727 162.553 133.382 162.963 133.135 163.471V171H131.328V160.434H133.037ZM141.924 165.629C141.924 164.008 142.308 162.706 143.076 161.723C143.844 160.733 144.85 160.238 146.094 160.238C147.331 160.238 148.311 160.661 149.033 161.508V156H150.84V171H149.18L149.092 169.867C148.369 170.753 147.363 171.195 146.074 171.195C144.85 171.195 143.851 170.694 143.076 169.691C142.308 168.689 141.924 167.38 141.924 165.766V165.629ZM143.73 165.834C143.73 167.032 143.978 167.969 144.473 168.646C144.967 169.324 145.651 169.662 146.523 169.662C147.669 169.662 148.506 169.148 149.033 168.119V163.266C148.493 162.27 147.663 161.771 146.543 161.771C145.658 161.771 144.967 162.113 144.473 162.797C143.978 163.48 143.73 164.493 143.73 165.834ZM167.559 165.834C167.559 167.449 167.188 168.747 166.445 169.73C165.703 170.707 164.707 171.195 163.457 171.195C162.122 171.195 161.09 170.723 160.361 169.779L160.273 171H158.613V156H160.42V161.596C161.149 160.691 162.155 160.238 163.438 160.238C164.72 160.238 165.726 160.723 166.455 161.693C167.191 162.663 167.559 163.992 167.559 165.678V165.834ZM165.752 165.629C165.752 164.398 165.514 163.448 165.039 162.777C164.564 162.107 163.88 161.771 162.988 161.771C161.797 161.771 160.941 162.325 160.42 163.432V168.002C160.973 169.109 161.836 169.662 163.008 169.662C163.874 169.662 164.548 169.327 165.029 168.656C165.511 167.986 165.752 166.977 165.752 165.629ZM176.367 169.955C175.664 170.782 174.632 171.195 173.271 171.195C172.145 171.195 171.286 170.87 170.693 170.219C170.107 169.561 169.811 168.591 169.805 167.309V160.434H171.611V167.26C171.611 168.861 172.262 169.662 173.564 169.662C174.945 169.662 175.863 169.148 176.318 168.119V160.434H178.125V171H176.406L176.367 169.955ZM184.336 168.354L186.797 160.434H188.73L184.482 172.631C183.825 174.389 182.78 175.268 181.348 175.268L181.006 175.238L180.332 175.111V173.646L180.82 173.686C181.432 173.686 181.908 173.562 182.246 173.314C182.591 173.067 182.874 172.615 183.096 171.957L183.496 170.883L179.727 160.434H181.699L184.336 168.354ZM201.836 171C201.732 170.792 201.647 170.421 201.582 169.887C200.742 170.759 199.74 171.195 198.574 171.195C197.533 171.195 196.676 170.902 196.006 170.316C195.342 169.724 195.01 168.975 195.01 168.07C195.01 166.97 195.426 166.117 196.26 165.512C197.1 164.9 198.278 164.594 199.795 164.594H201.553V163.764C201.553 163.132 201.364 162.631 200.986 162.26C200.609 161.882 200.052 161.693 199.316 161.693C198.672 161.693 198.132 161.856 197.695 162.182C197.259 162.507 197.041 162.901 197.041 163.363H195.225C195.225 162.836 195.41 162.328 195.781 161.84C196.159 161.345 196.667 160.954 197.305 160.668C197.949 160.382 198.656 160.238 199.424 160.238C200.641 160.238 201.595 160.544 202.285 161.156C202.975 161.762 203.333 162.598 203.359 163.666V168.529C203.359 169.499 203.483 170.271 203.73 170.844V171H201.836ZM198.838 169.623C199.404 169.623 199.941 169.477 200.449 169.184C200.957 168.891 201.325 168.51 201.553 168.041V165.873H200.137C197.923 165.873 196.816 166.521 196.816 167.816C196.816 168.383 197.005 168.826 197.383 169.145C197.76 169.464 198.245 169.623 198.838 169.623ZM212.852 160.434L212.9 161.605C213.675 160.694 214.72 160.238 216.035 160.238C217.513 160.238 218.519 160.805 219.053 161.938C219.404 161.43 219.86 161.02 220.42 160.707C220.986 160.395 221.654 160.238 222.422 160.238C224.74 160.238 225.918 161.465 225.957 163.92V171H224.15V164.027C224.15 163.272 223.978 162.709 223.633 162.338C223.288 161.96 222.708 161.771 221.895 161.771C221.224 161.771 220.667 161.973 220.225 162.377C219.782 162.774 219.525 163.311 219.453 163.988V171H217.637V164.076C217.637 162.54 216.885 161.771 215.381 161.771C214.196 161.771 213.385 162.276 212.949 163.285V171H211.143V160.434H212.852ZM228.213 165.619C228.213 164.584 228.415 163.653 228.818 162.826C229.229 161.999 229.795 161.361 230.518 160.912C231.247 160.463 232.077 160.238 233.008 160.238C234.447 160.238 235.609 160.736 236.494 161.732C237.386 162.729 237.832 164.053 237.832 165.707V165.834C237.832 166.863 237.633 167.787 237.236 168.607C236.846 169.421 236.283 170.056 235.547 170.512C234.818 170.967 233.978 171.195 233.027 171.195C231.595 171.195 230.433 170.697 229.541 169.701C228.656 168.705 228.213 167.387 228.213 165.746V165.619ZM230.029 165.834C230.029 167.006 230.299 167.947 230.84 168.656C231.387 169.366 232.116 169.721 233.027 169.721C233.945 169.721 234.674 169.363 235.215 168.646C235.755 167.924 236.025 166.915 236.025 165.619C236.025 164.46 235.749 163.523 235.195 162.807C234.648 162.084 233.919 161.723 233.008 161.723C232.116 161.723 231.396 162.077 230.85 162.787C230.303 163.497 230.029 164.512 230.029 165.834ZM245.205 162.055C244.932 162.009 244.635 161.986 244.316 161.986C243.132 161.986 242.327 162.491 241.904 163.5V171H240.098V160.434H241.855L241.885 161.654C242.477 160.71 243.317 160.238 244.404 160.238C244.756 160.238 245.023 160.284 245.205 160.375V162.055ZM251.064 171.195C249.632 171.195 248.467 170.727 247.568 169.789C246.67 168.845 246.221 167.585 246.221 166.01V165.678C246.221 164.63 246.419 163.695 246.816 162.875C247.22 162.048 247.78 161.404 248.496 160.941C249.219 160.473 250 160.238 250.84 160.238C252.214 160.238 253.281 160.691 254.043 161.596C254.805 162.501 255.186 163.796 255.186 165.482V166.234H248.027C248.053 167.276 248.356 168.119 248.936 168.764C249.521 169.402 250.264 169.721 251.162 169.721C251.8 169.721 252.34 169.59 252.783 169.33C253.226 169.07 253.613 168.725 253.945 168.295L255.049 169.154C254.163 170.515 252.835 171.195 251.064 171.195ZM250.84 161.723C250.111 161.723 249.499 161.99 249.004 162.523C248.509 163.051 248.203 163.793 248.086 164.75H253.379V164.613C253.327 163.695 253.079 162.986 252.637 162.484C252.194 161.977 251.595 161.723 250.84 161.723ZM118.809 194.195C117.376 194.195 116.211 193.727 115.312 192.789C114.414 191.845 113.965 190.585 113.965 189.01V188.678C113.965 187.63 114.163 186.695 114.561 185.875C114.964 185.048 115.524 184.404 116.24 183.941C116.963 183.473 117.744 183.238 118.584 183.238C119.958 183.238 121.025 183.691 121.787 184.596C122.549 185.501 122.93 186.796 122.93 188.482V189.234H115.771C115.798 190.276 116.1 191.119 116.68 191.764C117.266 192.402 118.008 192.721 118.906 192.721C119.544 192.721 120.085 192.59 120.527 192.33C120.97 192.07 121.357 191.725 121.689 191.295L122.793 192.154C121.908 193.515 120.579 194.195 118.809 194.195ZM118.584 184.723C117.855 184.723 117.243 184.99 116.748 185.523C116.253 186.051 115.947 186.793 115.83 187.75H121.123V187.613C121.071 186.695 120.824 185.986 120.381 185.484C119.938 184.977 119.339 184.723 118.584 184.723ZM125.918 194V184.83H124.248V183.434H125.918V182.35C125.918 181.217 126.221 180.341 126.826 179.723C127.432 179.104 128.288 178.795 129.395 178.795C129.811 178.795 130.225 178.85 130.635 178.961L130.537 180.426C130.231 180.367 129.906 180.338 129.561 180.338C128.975 180.338 128.522 180.51 128.203 180.855C127.884 181.194 127.725 181.682 127.725 182.32V183.434H131.631V182.535C131.631 181.357 131.966 180.439 132.637 179.781C133.314 179.124 134.268 178.795 135.498 178.795C136.227 178.795 137.148 178.993 138.262 179.391L137.959 180.914C137.145 180.589 136.367 180.426 135.625 180.426C134.85 180.426 134.29 180.598 133.945 180.943C133.607 181.288 133.438 181.812 133.438 182.516V183.434H135.605V184.83H133.438V194H131.631V184.83H127.725V194H125.918ZM139.15 194H137.344V183.434H139.15V194ZM146.338 192.721C146.982 192.721 147.546 192.525 148.027 192.135C148.509 191.744 148.776 191.256 148.828 190.67H150.537C150.505 191.275 150.296 191.852 149.912 192.398C149.528 192.945 149.014 193.382 148.369 193.707C147.731 194.033 147.054 194.195 146.338 194.195C144.899 194.195 143.753 193.717 142.9 192.76C142.054 191.796 141.631 190.481 141.631 188.814V188.512C141.631 187.483 141.82 186.568 142.197 185.768C142.575 184.967 143.115 184.345 143.818 183.902C144.528 183.46 145.365 183.238 146.328 183.238C147.513 183.238 148.496 183.593 149.277 184.303C150.065 185.012 150.485 185.934 150.537 187.066H148.828C148.776 186.383 148.516 185.823 148.047 185.387C147.585 184.944 147.012 184.723 146.328 184.723C145.41 184.723 144.697 185.055 144.189 185.719C143.688 186.376 143.438 187.33 143.438 188.58V188.922C143.438 190.139 143.688 191.077 144.189 191.734C144.691 192.392 145.407 192.721 146.338 192.721ZM154.531 194H152.725V183.434H154.531V194ZM152.578 180.631C152.578 180.338 152.666 180.09 152.842 179.889C153.024 179.687 153.291 179.586 153.643 179.586C153.994 179.586 154.261 179.687 154.443 179.889C154.626 180.09 154.717 180.338 154.717 180.631C154.717 180.924 154.626 181.168 154.443 181.363C154.261 181.559 153.994 181.656 153.643 181.656C153.291 181.656 153.024 181.559 152.842 181.363C152.666 181.168 152.578 180.924 152.578 180.631ZM161.816 194.195C160.384 194.195 159.219 193.727 158.32 192.789C157.422 191.845 156.973 190.585 156.973 189.01V188.678C156.973 187.63 157.171 186.695 157.568 185.875C157.972 185.048 158.532 184.404 159.248 183.941C159.971 183.473 160.752 183.238 161.592 183.238C162.965 183.238 164.033 183.691 164.795 184.596C165.557 185.501 165.938 186.796 165.938 188.482V189.234H158.779C158.805 190.276 159.108 191.119 159.688 191.764C160.273 192.402 161.016 192.721 161.914 192.721C162.552 192.721 163.092 192.59 163.535 192.33C163.978 192.07 164.365 191.725 164.697 191.295L165.801 192.154C164.915 193.515 163.587 194.195 161.816 194.195ZM161.592 184.723C160.863 184.723 160.251 184.99 159.756 185.523C159.261 186.051 158.955 186.793 158.838 187.75H164.131V187.613C164.079 186.695 163.831 185.986 163.389 185.484C162.946 184.977 162.347 184.723 161.592 184.723ZM169.746 183.434L169.805 184.762C170.612 183.746 171.667 183.238 172.969 183.238C175.202 183.238 176.328 184.498 176.348 187.018V194H174.541V187.008C174.535 186.246 174.359 185.683 174.014 185.318C173.675 184.954 173.145 184.771 172.422 184.771C171.836 184.771 171.322 184.928 170.879 185.24C170.436 185.553 170.091 185.963 169.844 186.471V194H168.037V183.434H169.746ZM181.523 180.875V183.434H183.496V184.83H181.523V191.383C181.523 191.806 181.611 192.125 181.787 192.34C181.963 192.548 182.262 192.652 182.686 192.652C182.894 192.652 183.18 192.613 183.545 192.535V194C183.07 194.13 182.607 194.195 182.158 194.195C181.351 194.195 180.742 193.951 180.332 193.463C179.922 192.975 179.717 192.281 179.717 191.383V184.83H177.793V183.434H179.717V180.875H181.523ZM194.062 191.549L196.68 183.434H198.525L194.736 194H193.359L189.531 183.434H191.377L194.062 191.549ZM204.512 194.195C203.079 194.195 201.914 193.727 201.016 192.789C200.117 191.845 199.668 190.585 199.668 189.01V188.678C199.668 187.63 199.867 186.695 200.264 185.875C200.667 185.048 201.227 184.404 201.943 183.941C202.666 183.473 203.447 183.238 204.287 183.238C205.661 183.238 206.729 183.691 207.49 184.596C208.252 185.501 208.633 186.796 208.633 188.482V189.234H201.475C201.501 190.276 201.803 191.119 202.383 191.764C202.969 192.402 203.711 192.721 204.609 192.721C205.247 192.721 205.788 192.59 206.23 192.33C206.673 192.07 207.061 191.725 207.393 191.295L208.496 192.154C207.611 193.515 206.283 194.195 204.512 194.195ZM204.287 184.723C203.558 184.723 202.946 184.99 202.451 185.523C201.956 186.051 201.65 186.793 201.533 187.75H206.826V187.613C206.774 186.695 206.527 185.986 206.084 185.484C205.641 184.977 205.042 184.723 204.287 184.723ZM212.539 184.713C213.34 183.73 214.382 183.238 215.664 183.238C217.897 183.238 219.023 184.498 219.043 187.018V194H217.236V187.008C217.23 186.246 217.054 185.683 216.709 185.318C216.37 184.954 215.84 184.771 215.117 184.771C214.531 184.771 214.017 184.928 213.574 185.24C213.132 185.553 212.786 185.963 212.539 186.471V194H210.732V179H212.539V184.713ZM223.711 194H221.904V183.434H223.711V194ZM221.758 180.631C221.758 180.338 221.846 180.09 222.021 179.889C222.204 179.687 222.471 179.586 222.822 179.586C223.174 179.586 223.441 179.687 223.623 179.889C223.805 180.09 223.896 180.338 223.896 180.631C223.896 180.924 223.805 181.168 223.623 181.363C223.441 181.559 223.174 181.656 222.822 181.656C222.471 181.656 222.204 181.559 222.021 181.363C221.846 181.168 221.758 180.924 221.758 180.631ZM230.85 192.721C231.494 192.721 232.057 192.525 232.539 192.135C233.021 191.744 233.288 191.256 233.34 190.67H235.049C235.016 191.275 234.808 191.852 234.424 192.398C234.04 192.945 233.525 193.382 232.881 193.707C232.243 194.033 231.566 194.195 230.85 194.195C229.411 194.195 228.265 193.717 227.412 192.76C226.566 191.796 226.143 190.481 226.143 188.814V188.512C226.143 187.483 226.331 186.568 226.709 185.768C227.087 184.967 227.627 184.345 228.33 183.902C229.04 183.46 229.876 183.238 230.84 183.238C232.025 183.238 233.008 183.593 233.789 184.303C234.577 185.012 234.997 185.934 235.049 187.066H233.34C233.288 186.383 233.027 185.823 232.559 185.387C232.096 184.944 231.523 184.723 230.84 184.723C229.922 184.723 229.209 185.055 228.701 185.719C228.2 186.376 227.949 187.33 227.949 188.58V188.922C227.949 190.139 228.2 191.077 228.701 191.734C229.202 192.392 229.919 192.721 230.85 192.721ZM239.043 194H237.236V179H239.043V194ZM246.328 194.195C244.896 194.195 243.73 193.727 242.832 192.789C241.934 191.845 241.484 190.585 241.484 189.01V188.678C241.484 187.63 241.683 186.695 242.08 185.875C242.484 185.048 243.044 184.404 243.76 183.941C244.482 183.473 245.264 183.238 246.104 183.238C247.477 183.238 248.545 183.691 249.307 184.596C250.068 185.501 250.449 186.796 250.449 188.482V189.234H243.291C243.317 190.276 243.62 191.119 244.199 191.764C244.785 192.402 245.527 192.721 246.426 192.721C247.064 192.721 247.604 192.59 248.047 192.33C248.49 192.07 248.877 191.725 249.209 191.295L250.312 192.154C249.427 193.515 248.099 194.195 246.328 194.195ZM246.104 184.723C245.374 184.723 244.762 184.99 244.268 185.523C243.773 186.051 243.467 186.793 243.35 187.75H248.643V187.613C248.59 186.695 248.343 185.986 247.9 185.484C247.458 184.977 246.859 184.723 246.104 184.723ZM252.588 193.053C252.588 192.74 252.679 192.48 252.861 192.271C253.05 192.063 253.33 191.959 253.701 191.959C254.072 191.959 254.352 192.063 254.541 192.271C254.736 192.48 254.834 192.74 254.834 193.053C254.834 193.352 254.736 193.603 254.541 193.805C254.352 194.007 254.072 194.107 253.701 194.107C253.33 194.107 253.05 194.007 252.861 193.805C252.679 193.603 252.588 193.352 252.588 193.053ZM256.406 183.785L255.381 183.082C255.986 182.236 256.299 181.344 256.318 180.406V179H258.105V180.27C258.099 180.921 257.936 181.572 257.617 182.223C257.305 182.867 256.901 183.388 256.406 183.785ZM259.404 183.785L258.379 183.082C258.984 182.236 259.297 181.344 259.316 180.406V179H261.104V180.27C261.097 180.921 260.934 181.572 260.615 182.223C260.303 182.867 259.899 183.388 259.404 183.785Z" fill="black"/>
</svg>
