<svg width="380" height="230" viewBox="0 0 380 230" fill="none" xmlns="http://www.w3.org/2000/svg">
<path d="M288.745 82.6327V84.7014L290.813 84.6316C336.166 83.1 371.932 122.845 365.643 167.785L365.011 172.298C362.817 187.979 354.869 202.282 342.712 212.427C331.245 221.997 316.783 227.239 301.847 227.239H89.7144L65.9815 225.02C56.856 224.166 47.9678 221.628 39.7675 217.535L34.0149 214.663C24.3935 209.86 16.4477 202.262 11.219 192.865C5.3104 182.247 3.20296 169.929 5.24516 157.95L6.02044 153.403C7.94067 142.139 13.4657 131.803 21.7647 123.95C31.5621 114.678 44.5388 109.511 58.0277 109.511H70.3045H72.3045V107.511V96.7518C72.3045 76.8433 83.4696 58.6167 101.205 49.5725C116.435 41.8062 134.477 41.8692 149.652 49.7419L154.817 52.4212L156.86 53.4812L157.624 51.3099L158.537 48.7173C165.483 28.9841 180.898 13.3963 200.552 6.2307L202.442 5.54158C208.869 3.19866 215.656 2 222.496 2C227.628 2 232.738 2.6748 237.694 4.00705L242.167 5.20937C249.188 7.0965 255.831 10.1768 261.808 14.3157L262.746 14.9653C274.761 23.2863 283.35 35.6836 286.918 49.8567C288.132 54.6761 288.745 59.6269 288.745 64.5966V82.6327Z" stroke="#C9D8DF" stroke-width="4"/>
<path d="M151.961 108H150.076V101.428H142.908V108H141.033V93.7812H142.908V99.8945H150.076V93.7812H151.961V108ZM154.529 102.619C154.529 101.584 154.731 100.653 155.135 99.8262C155.545 98.9993 156.111 98.3613 156.834 97.9121C157.563 97.4629 158.393 97.2383 159.324 97.2383C160.763 97.2383 161.925 97.7363 162.811 98.7324C163.702 99.7285 164.148 101.053 164.148 102.707V102.834C164.148 103.863 163.95 104.787 163.553 105.607C163.162 106.421 162.599 107.056 161.863 107.512C161.134 107.967 160.294 108.195 159.344 108.195C157.911 108.195 156.749 107.697 155.857 106.701C154.972 105.705 154.529 104.387 154.529 102.746V102.619ZM156.346 102.834C156.346 104.006 156.616 104.947 157.156 105.656C157.703 106.366 158.432 106.721 159.344 106.721C160.262 106.721 160.991 106.363 161.531 105.646C162.072 104.924 162.342 103.915 162.342 102.619C162.342 101.46 162.065 100.523 161.512 99.8066C160.965 99.084 160.236 98.7227 159.324 98.7227C158.432 98.7227 157.713 99.0775 157.166 99.7871C156.619 100.497 156.346 101.512 156.346 102.834ZM175.77 105.51L177.801 97.4336H179.607L176.531 108H175.066L172.498 99.9922L169.998 108H168.533L165.467 97.4336H167.264L169.344 105.344L171.805 97.4336H173.26L175.77 105.51ZM192.938 108C192.833 107.792 192.749 107.421 192.684 106.887C191.844 107.759 190.841 108.195 189.676 108.195C188.634 108.195 187.778 107.902 187.107 107.316C186.443 106.724 186.111 105.975 186.111 105.07C186.111 103.97 186.528 103.117 187.361 102.512C188.201 101.9 189.38 101.594 190.896 101.594H192.654V100.764C192.654 100.132 192.465 99.6309 192.088 99.2598C191.71 98.8822 191.154 98.6934 190.418 98.6934C189.773 98.6934 189.233 98.8561 188.797 99.1816C188.361 99.5072 188.143 99.901 188.143 100.363H186.326C186.326 99.8359 186.512 99.3281 186.883 98.8398C187.26 98.3451 187.768 97.9544 188.406 97.668C189.051 97.3815 189.757 97.2383 190.525 97.2383C191.743 97.2383 192.697 97.5443 193.387 98.1562C194.077 98.7617 194.435 99.5983 194.461 100.666V105.529C194.461 106.499 194.585 107.271 194.832 107.844V108H192.938ZM189.939 106.623C190.506 106.623 191.043 106.477 191.551 106.184C192.059 105.891 192.426 105.51 192.654 105.041V102.873H191.238C189.025 102.873 187.918 103.521 187.918 104.816C187.918 105.383 188.107 105.826 188.484 106.145C188.862 106.464 189.347 106.623 189.939 106.623ZM208.777 106.955C208.074 107.782 207.042 108.195 205.682 108.195C204.555 108.195 203.696 107.87 203.104 107.219C202.518 106.561 202.221 105.591 202.215 104.309V97.4336H204.021V104.26C204.021 105.861 204.673 106.662 205.975 106.662C207.355 106.662 208.273 106.148 208.729 105.119V97.4336H210.535V108H208.816L208.777 106.955ZM219.441 105.197C219.441 104.709 219.256 104.331 218.885 104.064C218.52 103.791 217.879 103.557 216.961 103.361C216.049 103.166 215.324 102.932 214.783 102.658C214.249 102.385 213.852 102.059 213.592 101.682C213.338 101.304 213.211 100.855 213.211 100.334C213.211 99.4681 213.576 98.7357 214.305 98.1367C215.04 97.5378 215.978 97.2383 217.117 97.2383C218.315 97.2383 219.285 97.5475 220.027 98.166C220.776 98.7845 221.15 99.5755 221.15 100.539H219.334C219.334 100.044 219.122 99.6178 218.699 99.2598C218.283 98.9017 217.755 98.7227 217.117 98.7227C216.46 98.7227 215.945 98.8659 215.574 99.1523C215.203 99.4388 215.018 99.8132 215.018 100.275C215.018 100.712 215.19 101.04 215.535 101.262C215.88 101.483 216.502 101.695 217.4 101.896C218.305 102.098 219.038 102.339 219.598 102.619C220.158 102.899 220.571 103.238 220.838 103.635C221.111 104.025 221.248 104.504 221.248 105.07C221.248 106.014 220.87 106.773 220.115 107.346C219.36 107.912 218.38 108.195 217.176 108.195C216.329 108.195 215.581 108.046 214.93 107.746C214.279 107.447 213.768 107.03 213.396 106.496C213.032 105.956 212.85 105.373 212.85 104.748H214.656C214.689 105.354 214.93 105.835 215.379 106.193C215.835 106.545 216.434 106.721 217.176 106.721C217.859 106.721 218.406 106.584 218.816 106.311C219.233 106.031 219.441 105.66 219.441 105.197ZM227.986 108.195C226.554 108.195 225.389 107.727 224.49 106.789C223.592 105.845 223.143 104.585 223.143 103.01V102.678C223.143 101.63 223.341 100.695 223.738 99.875C224.142 99.0482 224.702 98.4036 225.418 97.9414C226.141 97.4727 226.922 97.2383 227.762 97.2383C229.135 97.2383 230.203 97.6908 230.965 98.5957C231.727 99.5007 232.107 100.796 232.107 102.482V103.234H224.949C224.975 104.276 225.278 105.119 225.857 105.764C226.443 106.402 227.186 106.721 228.084 106.721C228.722 106.721 229.262 106.59 229.705 106.33C230.148 106.07 230.535 105.725 230.867 105.295L231.971 106.154C231.085 107.515 229.757 108.195 227.986 108.195ZM227.762 98.7227C227.033 98.7227 226.421 98.9896 225.926 99.5234C225.431 100.051 225.125 100.793 225.008 101.75H230.301V101.613C230.249 100.695 230.001 99.9857 229.559 99.4844C229.116 98.9766 228.517 98.7227 227.762 98.7227ZM239.314 99.0547C239.041 99.0091 238.745 98.9863 238.426 98.9863C237.241 98.9863 236.437 99.4909 236.014 100.5V108H234.207V97.4336H235.965L235.994 98.6543C236.587 97.7103 237.426 97.2383 238.514 97.2383C238.865 97.2383 239.132 97.2839 239.314 97.375V99.0547ZM124.773 129.721C125.418 129.721 125.981 129.525 126.463 129.135C126.945 128.744 127.212 128.256 127.264 127.67H128.973C128.94 128.275 128.732 128.852 128.348 129.398C127.964 129.945 127.449 130.382 126.805 130.707C126.167 131.033 125.49 131.195 124.773 131.195C123.335 131.195 122.189 130.717 121.336 129.76C120.49 128.796 120.066 127.481 120.066 125.814V125.512C120.066 124.483 120.255 123.568 120.633 122.768C121.01 121.967 121.551 121.345 122.254 120.902C122.964 120.46 123.8 120.238 124.764 120.238C125.949 120.238 126.932 120.593 127.713 121.303C128.501 122.012 128.921 122.934 128.973 124.066H127.264C127.212 123.383 126.951 122.823 126.482 122.387C126.02 121.944 125.447 121.723 124.764 121.723C123.846 121.723 123.133 122.055 122.625 122.719C122.124 123.376 121.873 124.33 121.873 125.58V125.922C121.873 127.139 122.124 128.077 122.625 128.734C123.126 129.392 123.842 129.721 124.773 129.721ZM132.811 121.713C133.611 120.73 134.653 120.238 135.936 120.238C138.169 120.238 139.295 121.498 139.314 124.018V131H137.508V124.008C137.501 123.246 137.326 122.683 136.98 122.318C136.642 121.954 136.111 121.771 135.389 121.771C134.803 121.771 134.288 121.928 133.846 122.24C133.403 122.553 133.058 122.963 132.811 123.471V131H131.004V116H132.811V121.713ZM141.541 125.619C141.541 124.584 141.743 123.653 142.146 122.826C142.557 121.999 143.123 121.361 143.846 120.912C144.575 120.463 145.405 120.238 146.336 120.238C147.775 120.238 148.937 120.736 149.822 121.732C150.714 122.729 151.16 124.053 151.16 125.707V125.834C151.16 126.863 150.962 127.787 150.564 128.607C150.174 129.421 149.611 130.056 148.875 130.512C148.146 130.967 147.306 131.195 146.355 131.195C144.923 131.195 143.761 130.697 142.869 129.701C141.984 128.705 141.541 127.387 141.541 125.746V125.619ZM143.357 125.834C143.357 127.006 143.628 127.947 144.168 128.656C144.715 129.366 145.444 129.721 146.355 129.721C147.273 129.721 148.003 129.363 148.543 128.646C149.083 127.924 149.354 126.915 149.354 125.619C149.354 124.46 149.077 123.523 148.523 122.807C147.977 122.084 147.247 121.723 146.336 121.723C145.444 121.723 144.725 122.077 144.178 122.787C143.631 123.497 143.357 124.512 143.357 125.834ZM152.947 125.619C152.947 124.584 153.149 123.653 153.553 122.826C153.963 121.999 154.529 121.361 155.252 120.912C155.981 120.463 156.811 120.238 157.742 120.238C159.181 120.238 160.343 120.736 161.229 121.732C162.12 122.729 162.566 124.053 162.566 125.707V125.834C162.566 126.863 162.368 127.787 161.971 128.607C161.58 129.421 161.017 130.056 160.281 130.512C159.552 130.967 158.712 131.195 157.762 131.195C156.329 131.195 155.167 130.697 154.275 129.701C153.39 128.705 152.947 127.387 152.947 125.746V125.619ZM154.764 125.834C154.764 127.006 155.034 127.947 155.574 128.656C156.121 129.366 156.85 129.721 157.762 129.721C158.68 129.721 159.409 129.363 159.949 128.646C160.49 127.924 160.76 126.915 160.76 125.619C160.76 124.46 160.483 123.523 159.93 122.807C159.383 122.084 158.654 121.723 157.742 121.723C156.85 121.723 156.131 122.077 155.584 122.787C155.037 123.497 154.764 124.512 154.764 125.834ZM170.984 128.197C170.984 127.709 170.799 127.331 170.428 127.064C170.063 126.791 169.422 126.557 168.504 126.361C167.592 126.166 166.867 125.932 166.326 125.658C165.792 125.385 165.395 125.059 165.135 124.682C164.881 124.304 164.754 123.855 164.754 123.334C164.754 122.468 165.118 121.736 165.848 121.137C166.583 120.538 167.521 120.238 168.66 120.238C169.858 120.238 170.828 120.548 171.57 121.166C172.319 121.785 172.693 122.576 172.693 123.539H170.877C170.877 123.044 170.665 122.618 170.242 122.26C169.826 121.902 169.298 121.723 168.66 121.723C168.003 121.723 167.488 121.866 167.117 122.152C166.746 122.439 166.561 122.813 166.561 123.275C166.561 123.712 166.733 124.04 167.078 124.262C167.423 124.483 168.045 124.695 168.943 124.896C169.848 125.098 170.581 125.339 171.141 125.619C171.701 125.899 172.114 126.238 172.381 126.635C172.654 127.025 172.791 127.504 172.791 128.07C172.791 129.014 172.413 129.773 171.658 130.346C170.903 130.912 169.923 131.195 168.719 131.195C167.872 131.195 167.124 131.046 166.473 130.746C165.822 130.447 165.311 130.03 164.939 129.496C164.575 128.956 164.393 128.373 164.393 127.748H166.199C166.232 128.354 166.473 128.835 166.922 129.193C167.378 129.545 167.977 129.721 168.719 129.721C169.402 129.721 169.949 129.584 170.359 129.311C170.776 129.031 170.984 128.66 170.984 128.197ZM179.529 131.195C178.097 131.195 176.932 130.727 176.033 129.789C175.135 128.845 174.686 127.585 174.686 126.01V125.678C174.686 124.63 174.884 123.695 175.281 122.875C175.685 122.048 176.245 121.404 176.961 120.941C177.684 120.473 178.465 120.238 179.305 120.238C180.678 120.238 181.746 120.691 182.508 121.596C183.27 122.501 183.65 123.796 183.65 125.482V126.234H176.492C176.518 127.276 176.821 128.119 177.4 128.764C177.986 129.402 178.729 129.721 179.627 129.721C180.265 129.721 180.805 129.59 181.248 129.33C181.691 129.07 182.078 128.725 182.41 128.295L183.514 129.154C182.628 130.515 181.3 131.195 179.529 131.195ZM179.305 121.723C178.576 121.723 177.964 121.99 177.469 122.523C176.974 123.051 176.668 123.793 176.551 124.75H181.844V124.613C181.792 123.695 181.544 122.986 181.102 122.484C180.659 121.977 180.06 121.723 179.305 121.723ZM191.902 128.197C191.902 127.709 191.717 127.331 191.346 127.064C190.981 126.791 190.34 126.557 189.422 126.361C188.51 126.166 187.785 125.932 187.244 125.658C186.71 125.385 186.313 125.059 186.053 124.682C185.799 124.304 185.672 123.855 185.672 123.334C185.672 122.468 186.036 121.736 186.766 121.137C187.501 120.538 188.439 120.238 189.578 120.238C190.776 120.238 191.746 120.548 192.488 121.166C193.237 121.785 193.611 122.576 193.611 123.539H191.795C191.795 123.044 191.583 122.618 191.16 122.26C190.743 121.902 190.216 121.723 189.578 121.723C188.921 121.723 188.406 121.866 188.035 122.152C187.664 122.439 187.479 122.813 187.479 123.275C187.479 123.712 187.651 124.04 187.996 124.262C188.341 124.483 188.963 124.695 189.861 124.896C190.766 125.098 191.499 125.339 192.059 125.619C192.618 125.899 193.032 126.238 193.299 126.635C193.572 127.025 193.709 127.504 193.709 128.07C193.709 129.014 193.331 129.773 192.576 130.346C191.821 130.912 190.841 131.195 189.637 131.195C188.79 131.195 188.042 131.046 187.391 130.746C186.74 130.447 186.229 130.03 185.857 129.496C185.493 128.956 185.311 128.373 185.311 127.748H187.117C187.15 128.354 187.391 128.835 187.84 129.193C188.296 129.545 188.895 129.721 189.637 129.721C190.32 129.721 190.867 129.584 191.277 129.311C191.694 129.031 191.902 128.66 191.902 128.197ZM202.83 121.713C203.631 120.73 204.673 120.238 205.955 120.238C208.188 120.238 209.314 121.498 209.334 124.018V131H207.527V124.008C207.521 123.246 207.345 122.683 207 122.318C206.661 121.954 206.131 121.771 205.408 121.771C204.822 121.771 204.308 121.928 203.865 122.24C203.423 122.553 203.077 122.963 202.83 123.471V131H201.023V116H202.83V121.713ZM211.561 125.619C211.561 124.584 211.762 123.653 212.166 122.826C212.576 121.999 213.143 121.361 213.865 120.912C214.594 120.463 215.424 120.238 216.355 120.238C217.794 120.238 218.956 120.736 219.842 121.732C220.734 122.729 221.18 124.053 221.18 125.707V125.834C221.18 126.863 220.981 127.787 220.584 128.607C220.193 129.421 219.63 130.056 218.895 130.512C218.165 130.967 217.326 131.195 216.375 131.195C214.943 131.195 213.781 130.697 212.889 129.701C212.003 128.705 211.561 127.387 211.561 125.746V125.619ZM213.377 125.834C213.377 127.006 213.647 127.947 214.188 128.656C214.734 129.366 215.464 129.721 216.375 129.721C217.293 129.721 218.022 129.363 218.562 128.646C219.103 127.924 219.373 126.915 219.373 125.619C219.373 124.46 219.096 123.523 218.543 122.807C217.996 122.084 217.267 121.723 216.355 121.723C215.464 121.723 214.744 122.077 214.197 122.787C213.65 123.497 213.377 124.512 213.377 125.834ZM232.801 128.51L234.832 120.434H236.639L233.562 131H232.098L229.529 122.992L227.029 131H225.564L222.498 120.434H224.295L226.375 128.344L228.836 120.434H230.291L232.801 128.51ZM245.896 117.875V120.434H247.869V121.83H245.896V128.383C245.896 128.806 245.984 129.125 246.16 129.34C246.336 129.548 246.635 129.652 247.059 129.652C247.267 129.652 247.553 129.613 247.918 129.535V131C247.443 131.13 246.98 131.195 246.531 131.195C245.724 131.195 245.115 130.951 244.705 130.463C244.295 129.975 244.09 129.281 244.09 128.383V121.83H242.166V120.434H244.09V117.875H245.896ZM249.314 125.619C249.314 124.584 249.516 123.653 249.92 122.826C250.33 121.999 250.896 121.361 251.619 120.912C252.348 120.463 253.178 120.238 254.109 120.238C255.548 120.238 256.71 120.736 257.596 121.732C258.488 122.729 258.934 124.053 258.934 125.707V125.834C258.934 126.863 258.735 127.787 258.338 128.607C257.947 129.421 257.384 130.056 256.648 130.512C255.919 130.967 255.079 131.195 254.129 131.195C252.697 131.195 251.535 130.697 250.643 129.701C249.757 128.705 249.314 127.387 249.314 125.746V125.619ZM251.131 125.834C251.131 127.006 251.401 127.947 251.941 128.656C252.488 129.366 253.217 129.721 254.129 129.721C255.047 129.721 255.776 129.363 256.316 128.646C256.857 127.924 257.127 126.915 257.127 125.619C257.127 124.46 256.85 123.523 256.297 122.807C255.75 122.084 255.021 121.723 254.109 121.723C253.217 121.723 252.498 122.077 251.951 122.787C251.404 123.497 251.131 124.512 251.131 125.834ZM114.412 140.875V143.434H116.385V144.83H114.412V151.383C114.412 151.806 114.5 152.125 114.676 152.34C114.852 152.548 115.151 152.652 115.574 152.652C115.783 152.652 116.069 152.613 116.434 152.535V154C115.958 154.13 115.496 154.195 115.047 154.195C114.24 154.195 113.631 153.951 113.221 153.463C112.811 152.975 112.605 152.281 112.605 151.383V144.83H110.682V143.434H112.605V140.875H114.412ZM123.611 145.055C123.338 145.009 123.042 144.986 122.723 144.986C121.538 144.986 120.734 145.491 120.311 146.5V154H118.504V143.434H120.262L120.291 144.654C120.883 143.71 121.723 143.238 122.811 143.238C123.162 143.238 123.429 143.284 123.611 143.375V145.055ZM131.414 154C131.31 153.792 131.225 153.421 131.16 152.887C130.32 153.759 129.318 154.195 128.152 154.195C127.111 154.195 126.255 153.902 125.584 153.316C124.92 152.724 124.588 151.975 124.588 151.07C124.588 149.97 125.005 149.117 125.838 148.512C126.678 147.9 127.856 147.594 129.373 147.594H131.131V146.764C131.131 146.132 130.942 145.631 130.564 145.26C130.187 144.882 129.63 144.693 128.895 144.693C128.25 144.693 127.71 144.856 127.273 145.182C126.837 145.507 126.619 145.901 126.619 146.363H124.803C124.803 145.836 124.988 145.328 125.359 144.84C125.737 144.345 126.245 143.954 126.883 143.668C127.527 143.382 128.234 143.238 129.002 143.238C130.219 143.238 131.173 143.544 131.863 144.156C132.553 144.762 132.911 145.598 132.938 146.666V151.529C132.938 152.499 133.061 153.271 133.309 153.844V154H131.414ZM128.416 152.623C128.982 152.623 129.52 152.477 130.027 152.184C130.535 151.891 130.903 151.51 131.131 151.041V148.873H129.715C127.501 148.873 126.395 149.521 126.395 150.816C126.395 151.383 126.583 151.826 126.961 152.145C127.339 152.464 127.824 152.623 128.416 152.623ZM139.1 151.549L141.717 143.434H143.562L139.773 154H138.396L134.568 143.434H136.414L139.1 151.549ZM149.549 154.195C148.117 154.195 146.951 153.727 146.053 152.789C145.154 151.845 144.705 150.585 144.705 149.01V148.678C144.705 147.63 144.904 146.695 145.301 145.875C145.704 145.048 146.264 144.404 146.98 143.941C147.703 143.473 148.484 143.238 149.324 143.238C150.698 143.238 151.766 143.691 152.527 144.596C153.289 145.501 153.67 146.796 153.67 148.482V149.234H146.512C146.538 150.276 146.84 151.119 147.42 151.764C148.006 152.402 148.748 152.721 149.646 152.721C150.285 152.721 150.825 152.59 151.268 152.33C151.71 152.07 152.098 151.725 152.43 151.295L153.533 152.154C152.648 153.515 151.32 154.195 149.549 154.195ZM149.324 144.723C148.595 144.723 147.983 144.99 147.488 145.523C146.993 146.051 146.688 146.793 146.57 147.75H151.863V147.613C151.811 146.695 151.564 145.986 151.121 145.484C150.678 144.977 150.079 144.723 149.324 144.723ZM157.732 154H155.926V139H157.732V154ZM160.574 153.053C160.574 152.74 160.665 152.48 160.848 152.271C161.036 152.063 161.316 151.959 161.688 151.959C162.059 151.959 162.339 152.063 162.527 152.271C162.723 152.48 162.82 152.74 162.82 153.053C162.82 153.352 162.723 153.603 162.527 153.805C162.339 154.007 162.059 154.107 161.688 154.107C161.316 154.107 161.036 154.007 160.848 153.805C160.665 153.603 160.574 153.352 160.574 153.053ZM160.584 144.43C160.584 144.117 160.675 143.857 160.857 143.648C161.046 143.44 161.326 143.336 161.697 143.336C162.068 143.336 162.348 143.44 162.537 143.648C162.732 143.857 162.83 144.117 162.83 144.43C162.83 144.729 162.732 144.98 162.537 145.182C162.348 145.383 162.068 145.484 161.697 145.484C161.326 145.484 161.046 145.383 160.857 145.182C160.675 144.98 160.584 144.729 160.584 144.43ZM171.785 138.814L172.82 139.518C172.215 140.344 171.902 141.236 171.883 142.193V143.521H170.086V142.389C170.086 141.725 170.242 141.067 170.555 140.416C170.874 139.765 171.284 139.231 171.785 138.814ZM174.861 138.814L175.896 139.518C175.291 140.344 174.979 141.236 174.959 142.193V143.521H173.162V142.389C173.162 141.725 173.318 141.067 173.631 140.416C173.95 139.765 174.36 139.231 174.861 138.814ZM185.633 147.721H179.666V154H177.791V139.781H186.6V141.324H179.666V146.188H185.633V147.721ZM194.754 154C194.65 153.792 194.565 153.421 194.5 152.887C193.66 153.759 192.658 154.195 191.492 154.195C190.451 154.195 189.594 153.902 188.924 153.316C188.26 152.724 187.928 151.975 187.928 151.07C187.928 149.97 188.344 149.117 189.178 148.512C190.018 147.9 191.196 147.594 192.713 147.594H194.471V146.764C194.471 146.132 194.282 145.631 193.904 145.26C193.527 144.882 192.97 144.693 192.234 144.693C191.59 144.693 191.049 144.856 190.613 145.182C190.177 145.507 189.959 145.901 189.959 146.363H188.143C188.143 145.836 188.328 145.328 188.699 144.84C189.077 144.345 189.585 143.954 190.223 143.668C190.867 143.382 191.574 143.238 192.342 143.238C193.559 143.238 194.513 143.544 195.203 144.156C195.893 144.762 196.251 145.598 196.277 146.666V151.529C196.277 152.499 196.401 153.271 196.648 153.844V154H194.754ZM191.756 152.623C192.322 152.623 192.859 152.477 193.367 152.184C193.875 151.891 194.243 151.51 194.471 151.041V148.873H193.055C190.841 148.873 189.734 149.521 189.734 150.816C189.734 151.383 189.923 151.826 190.301 152.145C190.678 152.464 191.163 152.623 191.756 152.623ZM200.809 143.434L200.857 144.605C201.632 143.694 202.677 143.238 203.992 143.238C205.47 143.238 206.476 143.805 207.01 144.938C207.361 144.43 207.817 144.02 208.377 143.707C208.943 143.395 209.611 143.238 210.379 143.238C212.697 143.238 213.875 144.465 213.914 146.92V154H212.107V147.027C212.107 146.272 211.935 145.709 211.59 145.338C211.245 144.96 210.665 144.771 209.852 144.771C209.181 144.771 208.624 144.973 208.182 145.377C207.739 145.774 207.482 146.311 207.41 146.988V154H205.594V147.076C205.594 145.54 204.842 144.771 203.338 144.771C202.153 144.771 201.342 145.276 200.906 146.285V154H199.1V143.434H200.809ZM218.611 154H216.805V143.434H218.611V154ZM216.658 140.631C216.658 140.338 216.746 140.09 216.922 139.889C217.104 139.687 217.371 139.586 217.723 139.586C218.074 139.586 218.341 139.687 218.523 139.889C218.706 140.09 218.797 140.338 218.797 140.631C218.797 140.924 218.706 141.168 218.523 141.363C218.341 141.559 218.074 141.656 217.723 141.656C217.371 141.656 217.104 141.559 216.922 141.363C216.746 141.168 216.658 140.924 216.658 140.631ZM223.475 154H221.668V139H223.475V154ZM228.338 154H226.531V143.434H228.338V154ZM226.385 140.631C226.385 140.338 226.473 140.09 226.648 139.889C226.831 139.687 227.098 139.586 227.449 139.586C227.801 139.586 228.068 139.687 228.25 139.889C228.432 140.09 228.523 140.338 228.523 140.631C228.523 140.924 228.432 141.168 228.25 141.363C228.068 141.559 227.801 141.656 227.449 141.656C227.098 141.656 226.831 141.559 226.648 141.363C226.473 141.168 226.385 140.924 226.385 140.631ZM237.762 154C237.658 153.792 237.573 153.421 237.508 152.887C236.668 153.759 235.665 154.195 234.5 154.195C233.458 154.195 232.602 153.902 231.932 153.316C231.268 152.724 230.936 151.975 230.936 151.07C230.936 149.97 231.352 149.117 232.186 148.512C233.025 147.9 234.204 147.594 235.721 147.594H237.479V146.764C237.479 146.132 237.29 145.631 236.912 145.26C236.535 144.882 235.978 144.693 235.242 144.693C234.598 144.693 234.057 144.856 233.621 145.182C233.185 145.507 232.967 145.901 232.967 146.363H231.15C231.15 145.836 231.336 145.328 231.707 144.84C232.085 144.345 232.592 143.954 233.23 143.668C233.875 143.382 234.581 143.238 235.35 143.238C236.567 143.238 237.521 143.544 238.211 144.156C238.901 144.762 239.259 145.598 239.285 146.666V151.529C239.285 152.499 239.409 153.271 239.656 153.844V154H237.762ZM234.764 152.623C235.33 152.623 235.867 152.477 236.375 152.184C236.883 151.891 237.251 151.51 237.479 151.041V148.873H236.062C233.849 148.873 232.742 149.521 232.742 150.816C232.742 151.383 232.931 151.826 233.309 152.145C233.686 152.464 234.171 152.623 234.764 152.623ZM247.225 145.055C246.951 145.009 246.655 144.986 246.336 144.986C245.151 144.986 244.347 145.491 243.924 146.5V154H242.117V143.434H243.875L243.904 144.654C244.497 143.71 245.337 143.238 246.424 143.238C246.775 143.238 247.042 143.284 247.225 143.375V145.055ZM250.857 154H249.051V143.434H250.857V154ZM248.904 140.631C248.904 140.338 248.992 140.09 249.168 139.889C249.35 139.687 249.617 139.586 249.969 139.586C250.32 139.586 250.587 139.687 250.77 139.889C250.952 140.09 251.043 140.338 251.043 140.631C251.043 140.924 250.952 141.168 250.77 141.363C250.587 141.559 250.32 141.656 249.969 141.656C249.617 141.656 249.35 141.559 249.168 141.363C248.992 141.168 248.904 140.924 248.904 140.631ZM256.209 140.875V143.434H258.182V144.83H256.209V151.383C256.209 151.806 256.297 152.125 256.473 152.34C256.648 152.548 256.948 152.652 257.371 152.652C257.579 152.652 257.866 152.613 258.23 152.535V154C257.755 154.13 257.293 154.195 256.844 154.195C256.036 154.195 255.428 153.951 255.018 153.463C254.607 152.975 254.402 152.281 254.402 151.383V144.83H252.479V143.434H254.402V140.875H256.209ZM263.758 151.354L266.219 143.434H268.152L263.904 155.631C263.247 157.389 262.202 158.268 260.77 158.268L260.428 158.238L259.754 158.111V156.646L260.242 156.686C260.854 156.686 261.329 156.562 261.668 156.314C262.013 156.067 262.296 155.615 262.518 154.957L262.918 153.883L259.148 143.434H261.121L263.758 151.354ZM135.77 177C135.665 176.792 135.581 176.421 135.516 175.887C134.676 176.759 133.673 177.195 132.508 177.195C131.466 177.195 130.61 176.902 129.939 176.316C129.275 175.724 128.943 174.975 128.943 174.07C128.943 172.97 129.36 172.117 130.193 171.512C131.033 170.9 132.212 170.594 133.729 170.594H135.486V169.764C135.486 169.132 135.298 168.631 134.92 168.26C134.542 167.882 133.986 167.693 133.25 167.693C132.605 167.693 132.065 167.856 131.629 168.182C131.193 168.507 130.975 168.901 130.975 169.363H129.158C129.158 168.836 129.344 168.328 129.715 167.84C130.092 167.345 130.6 166.954 131.238 166.668C131.883 166.382 132.589 166.238 133.357 166.238C134.575 166.238 135.529 166.544 136.219 167.156C136.909 167.762 137.267 168.598 137.293 169.666V174.529C137.293 175.499 137.417 176.271 137.664 176.844V177H135.77ZM132.771 175.623C133.338 175.623 133.875 175.477 134.383 175.184C134.891 174.891 135.258 174.51 135.486 174.041V171.873H134.07C131.857 171.873 130.75 172.521 130.75 173.816C130.75 174.383 130.939 174.826 131.316 175.145C131.694 175.464 132.179 175.623 132.771 175.623ZM141.834 166.434L141.893 167.762C142.7 166.746 143.755 166.238 145.057 166.238C147.29 166.238 148.416 167.498 148.436 170.018V177H146.629V170.008C146.622 169.246 146.447 168.683 146.102 168.318C145.763 167.954 145.232 167.771 144.51 167.771C143.924 167.771 143.41 167.928 142.967 168.24C142.524 168.553 142.179 168.963 141.932 169.471V177H140.125V166.434H141.834ZM150.721 171.629C150.721 170.008 151.105 168.706 151.873 167.723C152.641 166.733 153.647 166.238 154.891 166.238C156.128 166.238 157.107 166.661 157.83 167.508V162H159.637V177H157.977L157.889 175.867C157.166 176.753 156.16 177.195 154.871 177.195C153.647 177.195 152.648 176.694 151.873 175.691C151.105 174.689 150.721 173.38 150.721 171.766V171.629ZM152.527 171.834C152.527 173.032 152.775 173.969 153.27 174.646C153.764 175.324 154.448 175.662 155.32 175.662C156.466 175.662 157.303 175.148 157.83 174.119V169.266C157.29 168.27 156.46 167.771 155.34 167.771C154.454 167.771 153.764 168.113 153.27 168.797C152.775 169.48 152.527 170.493 152.527 171.834ZM171.795 177.195C170.363 177.195 169.197 176.727 168.299 175.789C167.4 174.845 166.951 173.585 166.951 172.01V171.678C166.951 170.63 167.15 169.695 167.547 168.875C167.951 168.048 168.51 167.404 169.227 166.941C169.949 166.473 170.73 166.238 171.57 166.238C172.944 166.238 174.012 166.691 174.773 167.596C175.535 168.501 175.916 169.796 175.916 171.482V172.234H168.758C168.784 173.276 169.087 174.119 169.666 174.764C170.252 175.402 170.994 175.721 171.893 175.721C172.531 175.721 173.071 175.59 173.514 175.33C173.956 175.07 174.344 174.725 174.676 174.295L175.779 175.154C174.894 176.515 173.566 177.195 171.795 177.195ZM171.57 167.723C170.841 167.723 170.229 167.99 169.734 168.523C169.24 169.051 168.934 169.793 168.816 170.75H174.109V170.613C174.057 169.695 173.81 168.986 173.367 168.484C172.924 167.977 172.326 167.723 171.57 167.723ZM181.561 170.291L183.904 166.434H186.014L182.557 171.658L186.121 177H184.031L181.59 173.045L179.148 177H177.049L180.613 171.658L177.156 166.434H179.246L181.561 170.291ZM196.863 171.834C196.863 173.442 196.495 174.738 195.76 175.721C195.024 176.704 194.028 177.195 192.771 177.195C191.489 177.195 190.48 176.788 189.744 175.975V181.062H187.938V166.434H189.588L189.676 167.605C190.411 166.694 191.434 166.238 192.742 166.238C194.012 166.238 195.014 166.717 195.75 167.674C196.492 168.631 196.863 169.962 196.863 171.668V171.834ZM195.057 171.629C195.057 170.438 194.803 169.497 194.295 168.807C193.787 168.117 193.09 167.771 192.205 167.771C191.111 167.771 190.291 168.257 189.744 169.227V174.275C190.285 175.239 191.111 175.721 192.225 175.721C193.09 175.721 193.777 175.379 194.285 174.695C194.799 174.005 195.057 172.983 195.057 171.629ZM203.553 177.195C202.12 177.195 200.955 176.727 200.057 175.789C199.158 174.845 198.709 173.585 198.709 172.01V171.678C198.709 170.63 198.908 169.695 199.305 168.875C199.708 168.048 200.268 167.404 200.984 166.941C201.707 166.473 202.488 166.238 203.328 166.238C204.702 166.238 205.77 166.691 206.531 167.596C207.293 168.501 207.674 169.796 207.674 171.482V172.234H200.516C200.542 173.276 200.844 174.119 201.424 174.764C202.01 175.402 202.752 175.721 203.65 175.721C204.288 175.721 204.829 175.59 205.271 175.33C205.714 175.07 206.102 174.725 206.434 174.295L207.537 175.154C206.652 176.515 205.324 177.195 203.553 177.195ZM203.328 167.723C202.599 167.723 201.987 167.99 201.492 168.523C200.997 169.051 200.691 169.793 200.574 170.75H205.867V170.613C205.815 169.695 205.568 168.986 205.125 168.484C204.682 167.977 204.083 167.723 203.328 167.723ZM211.482 166.434L211.541 167.762C212.348 166.746 213.403 166.238 214.705 166.238C216.938 166.238 218.064 167.498 218.084 170.018V177H216.277V170.008C216.271 169.246 216.095 168.683 215.75 168.318C215.411 167.954 214.881 167.771 214.158 167.771C213.572 167.771 213.058 167.928 212.615 168.24C212.173 168.553 211.827 168.963 211.58 169.471V177H209.773V166.434H211.482ZM226.961 174.197C226.961 173.709 226.775 173.331 226.404 173.064C226.04 172.791 225.398 172.557 224.48 172.361C223.569 172.166 222.843 171.932 222.303 171.658C221.769 171.385 221.372 171.059 221.111 170.682C220.857 170.304 220.73 169.855 220.73 169.334C220.73 168.468 221.095 167.736 221.824 167.137C222.56 166.538 223.497 166.238 224.637 166.238C225.835 166.238 226.805 166.548 227.547 167.166C228.296 167.785 228.67 168.576 228.67 169.539H226.854C226.854 169.044 226.642 168.618 226.219 168.26C225.802 167.902 225.275 167.723 224.637 167.723C223.979 167.723 223.465 167.866 223.094 168.152C222.723 168.439 222.537 168.813 222.537 169.275C222.537 169.712 222.71 170.04 223.055 170.262C223.4 170.483 224.021 170.695 224.92 170.896C225.825 171.098 226.557 171.339 227.117 171.619C227.677 171.899 228.09 172.238 228.357 172.635C228.631 173.025 228.768 173.504 228.768 174.07C228.768 175.014 228.39 175.773 227.635 176.346C226.88 176.912 225.9 177.195 224.695 177.195C223.849 177.195 223.1 177.046 222.449 176.746C221.798 176.447 221.287 176.03 220.916 175.496C220.551 174.956 220.369 174.373 220.369 173.748H222.176C222.208 174.354 222.449 174.835 222.898 175.193C223.354 175.545 223.953 175.721 224.695 175.721C225.379 175.721 225.926 175.584 226.336 175.311C226.753 175.031 226.961 174.66 226.961 174.197ZM235.506 177.195C234.074 177.195 232.908 176.727 232.01 175.789C231.111 174.845 230.662 173.585 230.662 172.01V171.678C230.662 170.63 230.861 169.695 231.258 168.875C231.661 168.048 232.221 167.404 232.938 166.941C233.66 166.473 234.441 166.238 235.281 166.238C236.655 166.238 237.723 166.691 238.484 167.596C239.246 168.501 239.627 169.796 239.627 171.482V172.234H232.469C232.495 173.276 232.798 174.119 233.377 174.764C233.963 175.402 234.705 175.721 235.604 175.721C236.242 175.721 236.782 175.59 237.225 175.33C237.667 175.07 238.055 174.725 238.387 174.295L239.49 175.154C238.605 176.515 237.277 177.195 235.506 177.195ZM235.281 167.723C234.552 167.723 233.94 167.99 233.445 168.523C232.951 169.051 232.645 169.793 232.527 170.75H237.82V170.613C237.768 169.695 237.521 168.986 237.078 168.484C236.635 167.977 236.036 167.723 235.281 167.723ZM241.766 176.053C241.766 175.74 241.857 175.48 242.039 175.271C242.228 175.063 242.508 174.959 242.879 174.959C243.25 174.959 243.53 175.063 243.719 175.271C243.914 175.48 244.012 175.74 244.012 176.053C244.012 176.352 243.914 176.603 243.719 176.805C243.53 177.007 243.25 177.107 242.879 177.107C242.508 177.107 242.228 177.007 242.039 176.805C241.857 176.603 241.766 176.352 241.766 176.053ZM245.584 166.785L244.559 166.082C245.164 165.236 245.477 164.344 245.496 163.406V162H247.283V163.27C247.277 163.921 247.114 164.572 246.795 165.223C246.482 165.867 246.079 166.388 245.584 166.785ZM248.582 166.785L247.557 166.082C248.162 165.236 248.475 164.344 248.494 163.406V162H250.281V163.27C250.275 163.921 250.112 164.572 249.793 165.223C249.48 165.867 249.077 166.388 248.582 166.785Z" fill="black"/>
</svg>
